<svg width="72" height="72" viewBox="0 0 72 72" fill="none" xmlns="http://www.w3.org/2000/svg">
<g clip-path="url(#clip0_43_873)">
<path fill-rule="evenodd" clip-rule="evenodd" d="M35.9979 66.136C38.4412 69.0682 40.8841 72 45.7704 72C57.0182 72 60.2672 57.0398 60.2716 45.7762C60.2716 40.8902 63.2034 38.4473 66.1356 36.0043C69.0678 33.5612 72 31.1182 72 26.2323C72 14.981 57.0182 11.7279 45.7744 11.7279C40.8884 11.7279 38.4451 8.79592 36.0022 5.86393C33.559 2.93197 31.1159 0 26.2297 0C14.9777 0 11.7244 14.981 11.7244 26.224C11.7244 31.1099 8.79332 33.5529 5.8622 35.9959C2.93111 38.439 0 40.882 0 45.7679C0 57.019 14.9777 60.2723 26.2255 60.2723C31.1117 60.2723 33.5548 63.2041 35.9979 66.136ZM36 49.32C43.3566 49.32 49.32 43.3566 49.32 36C49.32 28.6436 43.3566 22.68 36 22.68C28.6436 22.68 22.68 28.6436 22.68 36C22.68 43.3566 28.6436 49.32 36 49.32Z" fill="url(#paint0_linear_43_873)"/>
</g>
<defs>
<linearGradient id="paint0_linear_43_873" x1="74.34" y1="21.6" x2="-16.02" y2="54.9" gradientUnits="userSpaceOnUse">
<stop stop-color="#8EF55A"/>
<stop offset="1" stop-color="#214A50"/>
</linearGradient>
<clipPath id="clip0_43_873">
<rect width="72" height="72" fill="white"/>
</clipPath>
</defs>
</svg>
