<svg width="274" height="98" viewBox="0 0 274 98" fill="none" xmlns="http://www.w3.org/2000/svg">
<path fill-rule="evenodd" clip-rule="evenodd" d="M35.9979 77.636C38.4412 80.5682 40.8841 83.5 45.7704 83.5C57.0182 83.5 60.2672 68.5398 60.2716 57.2762C60.2716 52.3902 63.2034 49.9473 66.1356 47.5043C69.0678 45.0612 72 42.6182 72 37.7323C72 26.481 57.0182 23.2279 45.7744 23.2279C40.8884 23.2279 38.4451 20.2959 36.0022 17.3639C33.559 14.432 31.1159 11.5 26.2297 11.5C14.9777 11.5 11.7244 26.481 11.7244 37.724C11.7244 42.6099 8.79332 45.0529 5.8622 47.4959C2.93111 49.939 0 52.382 0 57.2679C0 68.519 14.9777 71.7723 26.2255 71.7723C31.1117 71.7723 33.5548 74.7041 35.9979 77.636ZM36 60.82C43.3566 60.82 49.32 54.8566 49.32 47.5C49.32 40.1436 43.3566 34.18 36 34.18C28.6436 34.18 22.68 40.1436 22.68 47.5C22.68 54.8566 28.6436 60.82 36 60.82Z" fill="url(#paint0_linear_27_179)"/>
<path d="M92.65 41.36V39.92H115.85V41.36H111.53L120.25 67.92L129.53 41.36H124.17V39.92H135.45V41.36H131.45L116.49 84.48C114.73 89.4933 112.757 92.9867 110.57 94.96C108.383 96.9867 105.717 98 102.57 98C99.4233 98 96.9433 97.28 95.13 95.84C93.3167 94.4 92.41 92.56 92.41 90.32C92.41 88.08 92.9967 86.3733 94.17 85.2C95.3433 84.0267 96.89 83.44 98.81 83.44C103.237 83.44 105.45 85.28 105.45 88.96C105.45 89.76 105.29 90.72 104.97 91.84H102.17C101.743 93.0667 101.69 94.08 102.01 94.88C102.33 95.68 103.05 96.08 104.17 96.08C106.357 96.08 108.303 94.9867 110.01 92.8C111.717 90.6667 113.343 87.3867 114.89 82.96L116.65 78H109.61L95.93 41.36H92.65ZM178.428 78H160.188L159.308 72.16C158.455 74.2933 157.175 75.9467 155.468 77.12C153.815 78.24 151.335 78.8 148.028 78.8C139.761 78.8 135.628 74.3467 135.628 65.44V41.36H131.148V39.92H150.508V67.36C150.508 70.56 150.721 72.6667 151.148 73.68C151.628 74.6933 152.535 75.2 153.868 75.2C155.255 75.2 156.481 74.3733 157.548 72.72C158.615 71.0667 159.148 68.7733 159.148 65.84V41.36H155.468V39.92H174.028V76.56H178.428V78ZM202.226 78V76.56H205.906L196.866 58L195.346 58.4V76.56H199.026V78H176.066V76.56H180.466V19.44H175.746V18H195.346V56.8L196.626 56.32L214.626 41.36H207.106V39.92H222.866V41.36H217.266L207.746 49.44L221.586 76.56H224.466V78H202.226ZM225.675 66.56V41.36H221.275V39.92H225.675V29.6L240.555 25.92V39.92H250.955V41.36H240.555V68.32C240.555 70.8267 240.795 72.6667 241.275 73.84C241.808 75.0133 242.875 75.6 244.475 75.6C246.075 75.6 247.462 74.8 248.635 73.2C249.862 71.6 250.662 69.4133 251.035 66.64L252.395 66.8C251.968 70.48 250.795 73.4133 248.875 75.6C246.955 77.7333 243.782 78.8 239.355 78.8C234.928 78.8 231.542 77.92 229.195 76.16C226.848 74.4 225.675 71.2 225.675 66.56ZM260.919 34.4C258.093 34.4 256.066 33.68 254.839 32.24C253.666 30.8 253.079 29.0133 253.079 26.88C253.079 24.7467 253.719 22.9867 254.999 21.6C256.333 20.2133 258.333 19.52 260.999 19.52C263.666 19.52 265.693 20.16 267.079 21.44C268.466 22.6667 269.159 24.4533 269.159 26.8C269.159 29.0933 268.493 30.9333 267.159 32.32C265.826 33.7067 263.746 34.4 260.919 34.4ZM248.839 39.92H268.439V76.56H272.919V78H249.159V76.56H253.559V41.36H248.839V39.92Z" fill="white"/>
<defs>
<linearGradient id="paint0_linear_27_179" x1="74.34" y1="33.1" x2="-16.02" y2="66.4" gradientUnits="userSpaceOnUse">
<stop stop-color="#8EF55A"/>
<stop offset="1" stop-color="#214A50"/>
</linearGradient>
</defs>
</svg>
