<svg width="277" height="263" viewBox="0 0 277 263" fill="none" xmlns="http://www.w3.org/2000/svg">
<g clip-path="url(#clip0_86_45)">
<path d="M111.105 118.426H131.439C132.26 118.424 133.048 118.099 133.629 117.519C134.21 116.94 134.537 116.155 134.538 115.336V95.0641C134.537 94.2451 134.21 93.4599 133.629 92.8808C133.048 92.3016 132.26 91.9757 131.439 91.9746H111.105C110.283 91.9757 109.495 92.3016 108.914 92.8808C108.333 93.4599 108.007 94.2451 108.005 95.0641V115.336C108.007 116.155 108.334 116.94 108.914 117.52C109.495 118.099 110.283 118.424 111.105 118.426ZM131.439 92.4688C132.129 92.4688 132.791 92.7423 133.28 93.229C133.768 93.7157 134.042 94.3758 134.042 95.0641V115.336C134.042 116.025 133.768 116.685 133.28 117.172C132.792 117.658 132.129 117.932 131.439 117.932H117.195C114.889 117.932 112.678 117.019 111.047 115.393C109.417 113.768 108.501 111.563 108.501 109.264V95.0641C108.501 94.7233 108.568 94.3858 108.699 94.0709C108.83 93.756 109.022 93.4698 109.264 93.2288C109.505 92.9878 109.792 92.7966 110.108 92.6662C110.424 92.5357 110.763 92.4686 111.105 92.4686L131.439 92.4688Z" fill="#F2F2F2"/>
<path d="M111.105 118.426H131.439C132.26 118.424 133.048 118.099 133.629 117.519C134.21 116.94 134.537 116.155 134.538 115.336V95.0641C134.537 94.2451 134.21 93.4599 133.629 92.8808C133.048 92.3016 132.26 91.9757 131.439 91.9746H111.105C110.283 91.9757 109.495 92.3016 108.914 92.8808C108.333 93.4599 108.007 94.2451 108.005 95.0641V115.336C108.007 116.155 108.334 116.94 108.914 117.52C109.495 118.099 110.283 118.424 111.105 118.426Z" fill="#179E66"/>
<path d="M121.396 87.5248C122.902 87.5248 124.124 86.3073 124.124 84.8054C124.124 83.3035 122.902 82.0859 121.396 82.0859C119.889 82.0859 118.668 83.3035 118.668 84.8054C118.668 86.3073 119.889 87.5248 121.396 87.5248Z" fill="#179E66"/>
<path d="M145.707 87.4175H166.041C166.863 87.4164 167.651 87.0905 168.232 86.5114C168.813 85.9322 169.139 85.147 169.141 84.328V64.0558C169.139 63.2368 168.813 62.4516 168.232 61.8725C167.651 61.2933 166.863 60.9674 166.041 60.9663H145.707C144.886 60.9674 144.098 61.2933 143.517 61.8725C142.936 62.4516 142.609 63.2368 142.608 64.0558V84.3275C142.609 85.1466 142.936 85.9319 143.517 86.5112C144.098 87.0905 144.886 87.4164 145.707 87.4175ZM166.041 61.46C166.383 61.46 166.722 61.5272 167.038 61.6576C167.354 61.7881 167.641 61.9792 167.882 62.2203C168.124 62.4613 168.316 62.7474 168.447 63.0623C168.578 63.3772 168.645 63.7147 168.645 64.0556V84.3272C168.645 85.0156 168.371 85.6758 167.882 86.1626C167.394 86.6493 166.732 86.9228 166.041 86.9228C163.029 86.9228 160.046 86.3314 157.263 85.1822C154.48 84.033 151.952 82.3487 149.822 80.2252C147.692 78.1018 146.002 75.5809 144.849 72.8066C143.697 70.0322 143.103 67.0586 143.103 64.0556C143.103 63.7147 143.171 63.3772 143.302 63.0623C143.432 62.7474 143.624 62.4613 143.866 62.2203C144.108 61.9792 144.395 61.7881 144.711 61.6576C145.026 61.5272 145.365 61.46 145.707 61.46H166.041H166.041Z" fill="#090814"/>
<path d="M155.998 56.5155C157.505 56.5155 158.726 55.298 158.726 53.7961C158.726 52.2942 157.505 51.0767 155.998 51.0767C154.492 51.0767 153.271 52.2942 153.271 53.7961C153.271 55.298 154.492 56.5155 155.998 56.5155Z" fill="#D6D6E3"/>
<path d="M156.582 72.8261C156.234 72.9207 155.866 72.9009 155.53 72.7695C155.195 72.6382 154.912 72.4024 154.722 72.0972C154.532 71.7921 154.446 71.434 154.477 71.0763C154.508 70.7186 154.654 70.3804 154.894 70.1122C155.133 69.8441 155.453 69.6602 155.806 69.5881C156.159 69.516 156.526 69.5595 156.852 69.7122C157.178 69.8648 157.445 70.1183 157.615 70.435C157.785 70.7517 157.847 71.1146 157.793 71.4696C157.689 72.0987 157.299 72.6457 156.946 73.1605C156.551 73.7338 156.139 74.2946 155.716 74.8456C154.755 76.0921 153.729 77.288 152.707 78.4837C152.657 78.5363 152.623 78.6023 152.61 78.6735C152.597 78.7447 152.605 78.8182 152.633 78.885C152.661 78.9519 152.707 79.0094 152.767 79.0505C152.827 79.0915 152.897 79.1145 152.97 79.1166L158.789 79.6473C159.265 79.6909 159.262 78.9489 158.789 78.9056L152.97 78.3748L153.233 79.0077C154.36 77.6899 155.485 76.3699 156.534 74.9893C157.049 74.3342 157.529 73.6533 157.974 72.9493C158.354 72.3254 158.642 71.6132 158.532 70.8722C158.344 69.5937 157.069 68.567 155.769 68.7534C155.128 68.8651 154.554 69.2159 154.164 69.7342C153.773 70.2526 153.596 70.8998 153.667 71.5441C153.871 72.9575 155.42 73.9012 156.781 73.5406C156.873 73.512 156.95 73.4487 156.997 73.3642C157.043 73.2797 157.055 73.1806 157.029 73.0877C157.003 72.9949 156.942 72.9156 156.859 72.8667C156.776 72.8177 156.677 72.8029 156.583 72.8254L156.582 72.8261Z" fill="#090814"/>
<path d="M117.543 55.3396H137.877C138.699 55.3385 139.486 55.0127 140.067 54.4335C140.648 53.8543 140.975 53.0692 140.976 52.2501V31.9782C140.975 31.1592 140.648 30.3741 140.067 29.7949C139.486 29.2158 138.699 28.8899 137.877 28.8887H117.543C116.722 28.8898 115.934 29.2157 115.353 29.7948C114.772 30.374 114.445 31.1592 114.444 31.9782V52.2504C114.445 53.0694 114.772 53.8545 115.353 54.4336C115.934 55.0127 116.722 55.3385 117.543 55.3396ZM137.877 29.3822C138.568 29.3822 139.23 29.6557 139.718 30.1424C140.206 30.6291 140.481 31.2891 140.481 31.9775V52.2496C140.481 52.938 140.206 53.5982 139.718 54.0849C139.23 54.5717 138.568 54.8452 137.877 54.8452C134.865 54.8452 131.882 54.2537 129.099 53.1045C126.316 51.9552 123.787 50.2708 121.657 48.1472C119.527 46.0237 117.838 43.5027 116.685 40.7282C115.532 37.9537 114.939 34.98 114.939 31.977C114.939 31.2889 115.214 30.6292 115.702 30.1427C116.19 29.6562 116.852 29.3829 117.542 29.3827L137.877 29.3822Z" fill="#090814"/>
<path d="M127.834 24.4388C129.341 24.4388 130.562 23.2213 130.562 21.7194C130.562 20.2175 129.341 19 127.834 19C126.328 19 125.106 20.2175 125.106 21.7194C125.106 23.2213 126.328 24.4388 127.834 24.4388Z" fill="#D6D6E3"/>
<path d="M125.451 37.7784C126.724 37.1333 128.417 37.6053 128.882 39.0297C128.993 39.3329 129.026 39.6594 128.976 39.9785C128.926 40.2976 128.795 40.5988 128.597 40.8538C128.398 41.1088 128.137 41.3092 127.839 41.4361C127.541 41.5631 127.216 41.6124 126.894 41.5794V42.3212C127.739 42.3514 128.542 42.6948 129.146 43.2843C129.419 43.5629 129.616 43.9064 129.719 44.2821C129.821 44.6579 129.826 45.0535 129.732 45.4314C129.625 45.7949 129.407 46.1162 129.109 46.3506C128.81 46.585 128.446 46.7208 128.067 46.7392C127.687 46.7575 127.311 46.6575 126.992 46.4531C126.672 46.2486 126.424 45.9498 126.282 45.5984C126.107 45.1614 125.385 45.3524 125.565 45.7953C125.707 46.1665 125.934 46.5 126.226 46.7699C126.519 47.0398 126.87 47.2387 127.253 47.3513C127.635 47.4638 128.038 47.487 128.431 47.4189C128.824 47.3509 129.196 47.1935 129.518 46.959C130.934 45.8987 130.79 43.8121 129.568 42.6572C128.83 41.9981 127.884 41.6174 126.893 41.5812C126.412 41.5501 126.424 42.2761 126.893 42.3229C127.333 42.3561 127.773 42.2789 128.175 42.0983C128.577 41.9177 128.926 41.6396 129.192 41.2894C129.456 40.9441 129.63 40.5399 129.701 40.112C129.772 39.6841 129.736 39.2455 129.599 38.8342C128.982 36.9386 126.784 36.274 125.075 37.1406C124.649 37.357 125.025 37.9964 125.452 37.7809L125.451 37.7784Z" fill="#090814"/>
<path d="M190.362 175.536L194.031 176.057L215.372 26.6806L211.702 26.1596L190.362 175.536Z" fill="#090814"/>
<path d="M231 208.845H170.772V211H231V208.845Z" fill="#D6D6E3"/>
<path d="M201.714 139.3L219.591 210.895L221.679 210.341L203.802 138.749L201.714 139.3Z" fill="#D6D6E3"/>
<path d="M201.658 142.336C203.364 142.336 204.747 140.957 204.747 139.257C204.747 137.556 203.364 136.178 201.658 136.178C199.953 136.178 198.57 137.556 198.57 139.257C198.57 140.957 199.953 142.336 201.658 142.336Z" fill="#090814"/>
<path d="M85.9391 116.679C85.9391 116.679 89.6597 116.04 95.1766 111.051C99.5416 107.106 105.429 107.882 107.699 108.379C107.777 108.396 107.847 108.436 107.901 108.493C107.955 108.551 107.99 108.624 108.002 108.702C108.013 108.78 108 108.86 107.964 108.931C107.929 109.001 107.872 109.059 107.803 109.097C106.885 109.597 105.463 110.328 104.796 110.412C104.796 110.412 106.171 111.83 104.71 112.589C104.535 112.675 104.339 112.71 104.145 112.691C103.951 112.673 103.766 112.601 103.611 112.483C102.908 111.972 100.955 113.134 98.1245 113.737C98.1245 113.737 87.091 125.12 84.5251 123.191L85.9391 116.679Z" fill="#9F616A"/>
<path d="M66.9428 101.203C66.9428 101.203 65.9164 105.552 66.9428 108.622L62.324 109.261L58.2186 107.215V104.529C58.2186 104.529 60.1432 100.436 59.6299 95.7036L66.9428 101.203Z" fill="#9F616A"/>
<path d="M53.865 195.461C53.865 195.461 50.5181 201.984 51.0425 206.333C51.5669 210.682 46.6803 206.844 47.1936 204.286C47.3023 207.383 45.7573 193.443 45.0349 190.178C44.9566 189.826 45.0125 189.456 45.1918 189.142C45.3711 188.829 45.6611 188.592 46.0053 188.479C47.5478 187.973 50.1303 187.353 51.4273 188.301C53.3433 189.706 53.865 195.461 53.865 195.461Z" fill="#090814"/>
<path d="M66.5577 202.623C66.5577 202.623 70.9199 208.251 72.0746 208.379C73.2293 208.507 73.9992 210.298 72.0746 210.681C68.2321 211.348 64.2802 210.964 60.6395 209.569C60.2751 209.428 59.969 209.168 59.7703 208.832C59.5715 208.496 59.4915 208.104 59.5433 207.717L60.279 202.24L66.5577 202.623Z" fill="#090814"/>
<path d="M73.7426 142.896L77.9261 143.452C77.3519 148.323 77.3687 153.246 77.9763 158.113V175.631C77.9763 175.631 78.0571 177.174 74.8441 179.418C71.4748 181.753 68.2278 184.258 65.1159 186.925L53.4744 196.98C53.4744 196.98 48.8556 191.352 49.4972 188.027C49.4972 188.027 57.195 185.596 58.2214 181.632C58.8098 179.363 61.7941 177.461 64.2373 176.265C65.7733 175.522 67.0079 174.277 67.736 172.737C68.4641 171.197 68.6419 169.455 68.2398 167.801C68.0971 167.226 67.8766 166.673 67.5844 166.158C65.5316 162.576 62.5808 154.519 62.5808 154.519L68.225 143.792L73.7426 142.896Z" fill="#090814"/>
<path d="M67.5839 203.015C67.5839 203.015 60.0144 204.294 59.7576 205.062C59.5008 205.829 59.7576 204.039 59.7576 204.039C59.7576 204.039 55.3954 190.865 56.4108 179.228C57.4262 167.592 55.1278 159.915 55.1278 159.915C55.1278 159.915 52.4337 151.218 53.9732 146.23C55.5127 141.242 71.6783 143.416 71.6783 143.416C71.6783 143.416 66.0331 156.59 66.1614 162.857C66.1614 162.857 65.52 181.786 64.3653 183.961C64.3764 183.95 66.1724 202.496 67.5839 203.015Z" fill="#090814"/>
<path d="M66.6945 104.529C66.6945 104.529 65.9247 109.256 58.2269 107.215L63.3477 146.094C63.3477 146.094 78.2301 146.605 78.1018 144.815L75.0339 121.284L66.6945 104.529Z" fill="white"/>
<path d="M66.4932 104.401C67.6398 105.295 69.0108 105.858 70.4565 106.027C71.7338 106.125 72.9755 106.493 74.0991 107.106C75.4182 107.843 76.8881 108.914 77.3344 110.218C78.2326 112.776 83.8775 116.996 86.4434 116.101L85.5455 123.775C85.5455 123.775 78.2326 123.392 76.9496 120.578L79.128 147.962H77.2034C77.2034 147.962 76.177 140.544 75.4071 139.009C74.6372 137.475 73.0978 129.033 72.9695 126.987C72.8412 124.94 70.9166 113.173 69.2489 111.138L66.4907 105.19L66.4932 104.401Z" fill="#179E66"/>
<path opacity="0.1" d="M59.9507 99.4767C60.1181 98.2645 59.7832 97.508 59.6299 96.0874L66.9428 101.587C66.9428 101.587 66.7671 102.33 66.6333 103.417C66.2644 103.476 65.8914 103.506 65.5177 103.506C62.9794 103.506 61.1528 101.529 59.9507 99.4767Z" fill="black"/>
<path d="M65.5313 103.125C69.3576 103.125 72.4594 100.032 72.4594 96.2178C72.4594 92.4033 69.3576 89.311 65.5313 89.311C61.705 89.311 58.6032 92.4033 58.6032 96.2178C58.6032 100.032 61.705 103.125 65.5313 103.125Z" fill="#9F616A"/>
<path d="M72.4946 90.3368C72.5355 89.262 72.3604 88.19 71.9797 87.1837C72.0854 87.342 72.1301 87.5331 72.1055 87.7217C72.0809 87.9102 71.9887 88.0836 71.8459 88.2097C71.6397 87.1126 71.0748 86.1146 70.2394 85.3714C70.695 85.4465 70.9292 86.0078 70.8168 86.4545C70.6629 86.8906 70.3891 87.2748 70.0266 87.5631C70.0652 86.8874 69.6171 86.2568 69.0508 85.8864C68.4608 85.5485 67.8161 85.3158 67.1459 85.1987C67.3757 85.2801 67.572 85.4349 67.7043 85.6392C67.8366 85.8434 67.8973 86.0856 67.8771 86.3278C67.8752 86.4102 67.841 86.4885 67.7819 86.5461C67.7176 86.5871 67.6419 86.6069 67.5656 86.6026C66.8986 86.6283 66.2307 86.6137 65.5654 86.5591C64.7476 86.4673 63.925 86.4236 63.102 86.4282C60.5278 86.536 57.9405 88.2888 57.3639 90.791C57.2444 91.3981 57.1814 92.0149 57.1759 92.6335L57.0504 95.7926C56.9771 96.7142 57.0152 97.6413 57.1636 98.5538C57.3417 99.3963 57.704 100.189 58.2247 100.876C58.7455 101.563 59.4119 102.126 60.1763 102.527C61.1051 101.185 61.1879 99.4602 61.5097 97.8614C61.5606 97.4926 61.6982 97.1411 61.9114 96.8354C62.0215 96.6842 62.176 96.5709 62.3536 96.5111C62.5311 96.4514 62.7229 96.4481 62.9024 96.5018C63.2501 96.6405 63.3992 97.169 63.111 97.4052C63.3685 97.708 63.8497 97.4823 64.1402 97.2128C64.9525 96.4445 65.5118 95.4485 65.7439 94.3565C65.8597 93.8072 65.9756 93.1303 66.5163 92.9423C66.7023 92.8914 66.8967 92.8783 67.0879 92.9038C68.2155 92.9809 69.9789 93.4453 71.0703 93.0885C72.0724 92.7597 72.4946 91.284 72.4946 90.3368Z" fill="#090814"/>
<path d="M58.6672 103.197L50.3921 110.295C50.3921 110.295 45.5168 115.284 47.5697 123.342C47.5697 123.342 48.4678 135.109 49.4942 135.62C49.4942 135.62 53.0866 142.783 53.3431 149.561C53.3431 149.561 58.4109 139.393 60.5948 145.277C62.7786 151.16 67.5869 152.506 67.5869 152.506L64.7642 117.719C64.7642 117.719 57.6408 105.36 58.6672 103.197Z" fill="#179E66"/>
<path d="M54.8829 133.179C54.8829 133.179 52.83 131.772 49.4945 135.609L57.7056 150.446L60.464 146.294C60.464 146.294 54.6263 134.842 54.8829 133.179Z" fill="#9F616A"/>
<path opacity="0.1" d="M56.2298 118.15C56.2298 118.15 55.9733 127.359 56.9997 130.813L56.2298 118.15Z" fill="black"/>
<path opacity="0.1" d="M77.0142 119.941C77.0142 119.941 75.4747 119.429 75.4747 118.15L77.0142 119.941Z" fill="black"/>
<path d="M169.186 111.598L169.503 113.63C168.557 112.434 166.878 111.019 165.477 110.039C167.132 110.168 169.246 110.129 170.651 109.785L169.319 111.195C176.664 113.222 183.335 111.549 185.314 107.118L185.838 107.351C183.771 111.979 176.818 113.728 169.186 111.598Z" fill="#D6D6E3"/>
<path d="M181.485 45.56L183.014 44.1795C181.526 44.5156 179.328 44.5605 177.621 44.4427C178.988 45.3813 180.605 46.7374 181.48 47.8859L181.334 45.9555C188.32 48.9886 192.445 54.4731 191.185 59.1553L191.74 59.3036C193.056 54.4133 188.758 48.6936 181.485 45.56Z" fill="#D6D6E3"/>
<path d="M179.697 81.318L180.014 83.3499C179.069 82.154 177.389 80.7395 175.988 79.7595C177.644 79.8882 179.757 79.8491 181.163 79.5055L179.83 80.9148C187.176 82.9422 193.847 81.2687 195.825 76.8386L196.35 77.0713C194.282 81.6995 187.33 83.4481 179.697 81.318Z" fill="#D6D6E3"/>
<path d="M124.113 99.44C123.953 99.76 123.779 100.087 123.593 100.42C123.406 100.74 123.193 101.127 122.953 101.58C122.713 102.033 122.426 102.62 122.093 103.34C121.773 104.033 121.486 104.747 121.233 105.48C120.979 106.2 120.779 106.88 120.633 107.52C120.486 108.16 120.419 108.7 120.433 109.14C120.646 109.047 120.859 108.973 121.073 108.92C121.299 108.867 121.539 108.84 121.793 108.84C122.099 108.84 122.353 108.853 122.553 108.88C122.766 108.893 123.026 108.92 123.333 108.96C123.399 108.973 123.453 109.033 123.493 109.14C123.546 109.233 123.573 109.333 123.573 109.44C123.573 109.64 123.519 109.733 123.413 109.72C123.119 109.693 122.866 109.667 122.653 109.64C122.453 109.613 122.206 109.6 121.913 109.6C121.659 109.6 121.419 109.62 121.193 109.66C120.979 109.7 120.759 109.753 120.533 109.82C120.519 109.887 120.473 109.933 120.393 109.96C120.313 109.987 120.246 109.973 120.193 109.92C119.899 110.013 119.613 110.12 119.333 110.24C119.053 110.373 118.759 110.5 118.453 110.62C118.439 110.633 118.413 110.64 118.373 110.64C118.319 110.64 118.273 110.613 118.233 110.56C118.193 110.52 118.173 110.473 118.173 110.42C118.173 110.327 118.219 110.26 118.313 110.22C118.619 110.1 118.906 109.96 119.173 109.8C119.453 109.64 119.733 109.487 120.013 109.34C119.999 109.233 119.986 109.127 119.973 109.02C119.973 108.913 119.973 108.8 119.973 108.68C119.973 108.013 120.079 107.247 120.293 106.38C120.519 105.513 120.839 104.633 121.253 103.74C121.453 103.3 121.599 102.94 121.693 102.66C121.786 102.38 121.859 102.14 121.913 101.94C121.979 101.74 122.073 101.533 122.193 101.32C122.019 101.467 121.853 101.58 121.693 101.66C121.533 101.74 121.339 101.853 121.113 102C120.886 102.133 120.573 102.36 120.173 102.68C120.079 102.76 119.999 102.8 119.933 102.8C119.853 102.8 119.813 102.747 119.813 102.64C119.813 102.493 119.866 102.387 119.973 102.32C120.519 102.013 121.113 101.593 121.753 101.06C122.393 100.513 123.066 99.8933 123.773 99.2C123.826 99.1467 123.886 99.12 123.953 99.12C124.019 99.12 124.073 99.1533 124.113 99.22C124.153 99.2733 124.153 99.3467 124.113 99.44Z" fill="white"/>
</g>
<path opacity="0.18" d="M130.127 17.0397C125.194 17.1188 120.278 17.6784 115.446 18.7014C97.3271 22.754 82.3544 35.2282 68.7863 47.9625C57.4374 58.6111 46.2683 70.1244 40.3635 84.5656C34.7171 98.419 34.3576 114.109 27.8235 127.607C23.6885 136.164 17.3173 143.365 12.2497 151.408C3.69867 165.001 -0.683574 182.997 6.9067 197.196C11.2271 205.267 18.8006 211.015 26.3628 216.13C45.7177 229.237 67.0783 240.197 90.1582 243.616C98.9676 244.922 107.901 245.126 116.8 245.555C124.48 245.939 132.245 246.516 139.796 245.075C158.684 241.463 172.994 226.095 190.5 218.103C202.95 212.417 216.771 210.602 229.997 207.194C243.222 203.78 256.745 198.241 265.06 187.304C272.482 177.543 274.561 165.137 275.853 153.228C277.1 141.759 270.117 131.02 265.847 120.474C256.616 97.6786 246.97 74.6122 230.12 56.2937C212.889 37.6643 190.293 24.9244 165.505 19.8544C156.235 18.0797 146.824 17.1358 137.391 17.0397C134.975 16.9945 132.548 16.9775 130.127 17.0453V17.0397Z" fill="#30C285"/>
<defs>
<clipPath id="clip0_86_45">
<rect width="186" height="192" fill="white" transform="translate(45 19)"/>
</clipPath>
</defs>
</svg>
