<svg width="289" height="263" viewBox="0 0 289 263" fill="none" xmlns="http://www.w3.org/2000/svg">
<path opacity="0.18" d="M132.127 17.0397C127.194 17.1188 122.278 17.6784 117.446 18.7014C99.3271 22.754 84.3544 35.2282 70.7863 47.9625C59.4374 58.6111 48.2683 70.1244 42.3635 84.5656C36.7171 98.419 36.3576 114.109 29.8235 127.607C25.6885 136.164 19.3173 143.365 14.2497 151.408C5.69867 165.001 1.31643 182.997 8.9067 197.196C13.2271 205.267 20.8006 211.015 28.3628 216.13C47.7177 229.237 69.0783 240.197 92.1582 243.616C100.968 244.922 109.901 245.126 118.8 245.555C126.48 245.939 134.245 246.516 141.796 245.075C160.684 241.463 174.994 226.095 192.5 218.103C204.95 212.417 218.771 210.602 231.997 207.194C245.222 203.78 258.745 198.241 267.06 187.304C274.482 177.543 276.561 165.137 277.853 153.228C279.1 141.759 272.117 131.02 267.847 120.474C258.616 97.6786 248.97 74.6122 232.12 56.2937C214.889 37.6643 192.293 24.9244 167.505 19.8544C158.235 18.0797 148.824 17.1358 139.391 17.0397C136.975 16.9945 134.548 16.9775 132.127 17.0453V17.0397Z" fill="#30C285"/>
<g clip-path="url(#clip0_86_194)">
<path d="M41.7061 189.301H245.754V177.013C245.754 174.446 242.658 171.92 237.261 170.082L237.205 170.063C233.561 168.778 210.263 159.637 197.661 159.914C191.005 160.059 185.305 161.187 180.723 163.264C166.457 169.733 147.719 172.123 137.818 170.246C129.093 168.591 105.141 165.854 96.2904 165.978C83.8955 166.148 83.8592 168.217 71.1361 174.893C66.2767 177.441 64.4592 177.76 41.7061 179.793V189.301Z" fill="#F2F2F2"/>
<path d="M8.81031 171.239C8.36599 164.646 11.1676 157.987 16.9726 155.54C15.7991 162.332 17.245 169.88 20.9731 176.423C22.4252 178.972 24.29 181.693 23.8931 184.356C23.6462 186.013 22.5179 187.328 21.1391 188.184C19.7602 189.041 18.1355 189.498 16.5305 189.947L16.2534 190.238C12.4391 184.336 9.25464 177.831 8.81031 171.239Z" fill="#F2F2F2"/>
<path d="M17.058 155.661C14.1791 160.088 12.9001 165.366 13.4326 170.619C13.5207 171.818 13.7897 172.998 14.2305 174.118C14.7126 175.239 15.4521 176.232 16.3891 177.016C17.2563 177.77 18.2186 178.454 18.9131 179.38C19.2559 179.832 19.5039 180.348 19.6423 180.898C19.7807 181.448 19.8067 182.02 19.7188 182.58C19.5163 183.907 18.8286 185.016 18.1143 186.071C17.3212 187.242 16.4768 188.444 16.3329 189.951C16.3155 190.134 16.0233 190.056 16.0407 189.874C16.291 187.252 18.5047 185.657 19.2487 183.269C19.4511 182.692 19.5201 182.077 19.4506 181.47C19.3811 180.862 19.1749 180.278 18.8475 179.762C18.2003 178.782 17.2086 178.076 16.3247 177.319C15.3993 176.564 14.6467 175.619 14.1174 174.549C13.6228 173.449 13.3094 172.275 13.1893 171.075C12.8892 168.486 13.0122 165.866 13.5535 163.317C14.1324 160.511 15.2428 157.841 16.8248 155.452C16.9218 155.307 17.1544 155.516 17.058 155.661Z" fill="white"/>
<path d="M13.1733 168.853C12.2184 168.667 11.3455 168.187 10.676 167.482C10.0066 166.776 9.57392 165.88 9.43822 164.917C9.41722 164.73 9.70904 164.729 9.73006 164.917C9.85491 165.813 10.2579 166.648 10.8823 167.304C11.5067 167.96 12.3212 168.403 13.2111 168.572C13.2298 168.575 13.2478 168.581 13.2642 168.59C13.2806 168.599 13.295 168.612 13.3065 168.626C13.318 168.641 13.3264 168.658 13.3313 168.676C13.3362 168.695 13.3374 168.713 13.3349 168.732C13.3324 168.751 13.3262 168.769 13.3167 168.785C13.3072 168.801 13.2946 168.815 13.2795 168.827C13.2645 168.838 13.2474 168.846 13.2291 168.851C13.2109 168.855 13.1919 168.856 13.1733 168.853Z" fill="white"/>
<path d="M15.906 176.683C16.6185 176.153 17.2106 175.478 17.6431 174.702C18.0756 173.927 18.3389 173.069 18.4155 172.184C18.4336 172.002 18.7258 172.079 18.7077 172.261C18.6262 173.182 18.3503 174.074 17.8984 174.88C17.4465 175.686 16.8287 176.387 16.0859 176.937C15.9438 177.04 15.7646 176.787 15.906 176.683Z" fill="white"/>
<path d="M14.4728 160.727C14.8059 160.87 15.17 160.925 15.5306 160.888C15.8912 160.851 16.2363 160.723 16.5332 160.515C16.6737 160.409 16.8527 160.663 16.7132 160.768C16.3841 160.996 16.0029 161.138 15.6048 161.179C15.2066 161.221 14.8043 161.162 14.435 161.008C14.3967 160.996 14.3633 160.973 14.3402 160.94C14.3171 160.908 14.3057 160.868 14.3078 160.829C14.3105 160.81 14.3172 160.793 14.3273 160.777C14.3375 160.762 14.3509 160.749 14.3666 160.739C14.3823 160.73 14.4 160.723 14.4183 160.721C14.4367 160.719 14.4553 160.721 14.4728 160.727Z" fill="white"/>
<path d="M38.1525 166.281C38.0671 166.35 37.9816 166.419 37.8966 166.49C36.7554 167.42 35.7036 168.455 34.7552 169.58C34.6803 169.666 34.6059 169.754 34.534 169.842C32.2649 172.616 30.604 175.835 29.6587 179.291C29.271 180.7 28.9988 182.138 28.845 183.592C28.629 185.619 28.5618 187.856 27.6901 189.549C27.6017 189.727 27.501 189.897 27.3885 190.061L16.6849 190.603C16.6582 190.592 16.6319 190.584 16.6051 190.573L16.1815 190.614C16.1841 190.537 16.1885 190.457 16.1911 190.38C16.1924 190.336 16.1961 190.291 16.1974 190.246C16.199 190.216 16.2008 190.186 16.2005 190.159C16.201 190.149 16.2016 190.139 16.2026 190.132C16.2023 190.105 16.205 190.08 16.2052 190.055C16.2285 189.61 16.2541 189.165 16.2848 188.719C16.2843 188.717 16.2843 188.717 16.2862 188.714C16.4702 185.365 17.0788 182.054 18.0975 178.858C18.129 178.765 18.1599 178.669 18.1962 178.575C18.6714 177.19 19.2726 175.852 19.9925 174.576C20.3858 173.886 20.8188 173.219 21.2892 172.579C22.5074 170.93 24.014 169.514 25.7363 168.401C27.4944 167.231 29.4731 166.432 31.5512 166.054C33.6293 165.675 35.7629 165.724 37.8212 166.199C37.9322 166.225 38.041 166.252 38.1525 166.281Z" fill="#F2F2F2"/>
<path d="M38.1546 166.419C33.1374 167.679 28.7381 170.693 25.7542 174.915C25.0992 175.814 24.6092 176.822 24.3071 177.892C24.0439 179.004 24.0869 180.167 24.4315 181.258C24.7335 182.317 25.1628 183.384 25.2066 184.462C25.2307 184.99 25.1295 185.516 24.9111 185.997C24.6927 186.478 24.3635 186.901 23.9503 187.231C22.9553 188.056 21.6664 188.434 20.3867 188.757C18.9658 189.117 17.481 189.467 16.4271 190.456C16.2994 190.576 16.089 190.345 16.2165 190.225C18.0501 188.504 20.9858 188.697 23.1115 187.44C24.1034 186.853 24.8786 185.94 24.9139 184.696C24.9447 183.607 24.5029 182.507 24.1881 181.436C23.8374 180.371 23.7528 179.237 23.9419 178.132C24.1838 177.045 24.6307 176.014 25.2589 175.094C26.6213 173.029 28.3466 171.227 30.3513 169.776C32.6717 168.082 35.2935 166.845 38.0768 166.13C38.2521 166.084 38.3287 166.374 38.1546 166.419Z" fill="white"/>
<path d="M26.6105 173.499C25.1231 172.094 24.7509 169.93 25.7323 168.445C25.829 168.298 26.087 168.474 25.9902 168.62C25.0708 170.012 25.4262 172.008 26.8166 173.322C26.9629 173.46 26.756 173.637 26.6105 173.499Z" fill="white"/>
<path d="M24.209 180.73C25.1117 180.799 26.0189 180.683 26.8755 180.39C27.7322 180.098 28.5203 179.634 29.1921 179.028C29.3203 178.909 29.5307 179.14 29.4027 179.259C28.702 179.888 27.8806 180.369 26.9883 180.671C26.0961 180.974 25.1515 181.092 24.2121 181.019C24.0227 181.008 24.0206 180.719 24.209 180.73Z" fill="white"/>
<path d="M32.7558 168.481C32.9808 168.794 33.2722 169.054 33.6093 169.242C33.9463 169.43 34.3207 169.541 34.7058 169.568C34.8949 169.577 34.8968 169.866 34.7089 169.857C34.2835 169.826 33.8701 169.702 33.4973 169.495C33.1244 169.288 32.8011 169.003 32.5497 168.658C32.5229 168.631 32.5077 168.595 32.5073 168.557C32.5069 168.519 32.5213 168.482 32.5475 168.454C32.579 168.431 32.6182 168.421 32.6569 168.426C32.6957 168.431 32.7311 168.451 32.7558 168.481Z" fill="white"/>
<path d="M276.793 171.239C277.237 164.646 274.436 157.987 268.631 155.54C269.804 162.332 268.358 169.88 264.63 176.423C263.178 178.972 261.313 181.693 261.71 184.356C261.957 186.013 263.085 187.328 264.464 188.184C265.843 189.041 267.468 189.498 269.073 189.947L269.35 190.238C273.164 184.336 276.349 177.831 276.793 171.239Z" fill="#F2F2F2"/>
<path d="M268.545 155.661C271.424 160.088 272.703 165.366 272.171 170.619C272.083 171.818 271.814 172.998 271.373 174.118C270.891 175.239 270.151 176.232 269.214 177.016C268.347 177.77 267.385 178.454 266.69 179.38C266.347 179.832 266.099 180.348 265.961 180.898C265.822 181.448 265.796 182.02 265.884 182.58C266.087 183.907 266.775 185.016 267.489 186.071C268.282 187.242 269.126 188.444 269.27 189.951C269.288 190.134 269.58 190.056 269.563 189.874C269.312 187.252 267.099 185.657 266.354 183.269C266.152 182.692 266.083 182.077 266.153 181.47C266.222 180.862 266.428 180.278 266.756 179.762C267.403 178.782 268.395 178.076 269.278 177.319C270.204 176.564 270.957 175.619 271.486 174.549C271.98 173.449 272.294 172.275 272.414 171.075C272.714 168.486 272.591 165.866 272.05 163.317C271.471 160.511 270.36 157.841 268.778 155.452C268.681 155.307 268.449 155.516 268.545 155.661Z" fill="white"/>
<path d="M272.43 168.853C273.385 168.667 274.258 168.187 274.927 167.482C275.597 166.776 276.029 165.88 276.165 164.917C276.186 164.73 275.894 164.729 275.873 164.917C275.748 165.813 275.345 166.648 274.721 167.304C274.096 167.96 273.282 168.403 272.392 168.572C272.373 168.575 272.355 168.581 272.339 168.59C272.323 168.599 272.308 168.612 272.297 168.626C272.285 168.641 272.277 168.658 272.272 168.676C272.267 168.695 272.266 168.713 272.268 168.732C272.271 168.751 272.277 168.769 272.286 168.785C272.296 168.801 272.309 168.815 272.324 168.827C272.339 168.838 272.356 168.846 272.374 168.851C272.392 168.855 272.411 168.856 272.43 168.853Z" fill="white"/>
<path d="M269.697 176.683C268.985 176.153 268.393 175.478 267.96 174.702C267.528 173.927 267.264 173.069 267.188 172.184C267.17 172.002 266.877 172.079 266.896 172.261C266.977 173.182 267.253 174.074 267.705 174.88C268.157 175.686 268.775 176.387 269.517 176.937C269.659 177.04 269.839 176.787 269.697 176.683Z" fill="white"/>
<path d="M271.13 160.727C270.797 160.87 270.433 160.925 270.073 160.888C269.712 160.851 269.367 160.723 269.07 160.515C268.93 160.409 268.751 160.663 268.89 160.768C269.219 160.996 269.6 161.138 269.998 161.179C270.397 161.221 270.799 161.162 271.168 161.008C271.207 160.996 271.24 160.973 271.263 160.94C271.286 160.908 271.298 160.868 271.295 160.829C271.293 160.81 271.286 160.793 271.276 160.777C271.266 160.762 271.252 160.749 271.237 160.739C271.221 160.73 271.203 160.723 271.185 160.721C271.167 160.719 271.148 160.721 271.13 160.727Z" fill="white"/>
<path d="M247.451 166.281C247.536 166.35 247.622 166.418 247.707 166.49C248.848 167.42 249.9 168.454 250.848 169.58C250.923 169.665 250.997 169.753 251.069 169.841C253.338 172.615 254.999 175.835 255.945 179.29C256.332 180.7 256.604 182.138 256.758 183.591C256.974 185.618 257.041 187.856 257.913 189.549C258.001 189.726 258.102 189.897 258.215 190.06L268.918 190.603C268.945 190.592 268.971 190.583 268.998 190.572L269.422 190.613C269.419 190.536 269.415 190.457 269.412 190.38C269.411 190.335 269.407 190.29 269.406 190.246C269.404 190.216 269.402 190.186 269.403 190.159C269.402 190.149 269.402 190.139 269.401 190.131C269.401 190.104 269.398 190.079 269.398 190.054C269.375 189.609 269.349 189.164 269.318 188.719C269.319 188.716 269.319 188.716 269.317 188.714C269.133 185.365 268.524 182.053 267.506 178.857C267.474 178.764 267.443 178.668 267.407 178.575C266.932 177.19 266.331 175.851 265.611 174.576C265.217 173.886 264.784 173.219 264.314 172.578C263.096 170.929 261.589 169.514 259.867 168.401C258.109 167.231 256.13 166.432 254.052 166.053C251.974 165.675 249.84 165.724 247.782 166.198C247.671 166.225 247.562 166.252 247.451 166.281Z" fill="#F2F2F2"/>
<path d="M247.449 166.419C252.466 167.679 256.865 170.693 259.849 174.915C260.504 175.814 260.994 176.822 261.296 177.892C261.559 179.004 261.516 180.167 261.172 181.258C260.87 182.317 260.44 183.384 260.397 184.462C260.372 184.99 260.474 185.516 260.692 185.997C260.91 186.478 261.24 186.901 261.653 187.231C262.648 188.056 263.937 188.434 265.217 188.757C266.637 189.117 268.122 189.467 269.176 190.456C269.304 190.576 269.514 190.345 269.387 190.225C267.553 188.504 264.617 188.697 262.492 187.44C261.5 186.853 260.725 185.94 260.689 184.696C260.658 183.607 261.1 182.507 261.415 181.436C261.766 180.371 261.85 179.237 261.661 178.132C261.419 177.045 260.972 176.014 260.344 175.094C258.982 173.029 257.257 171.227 255.252 169.776C252.931 168.082 250.31 166.845 247.526 166.13C247.351 166.084 247.275 166.374 247.449 166.419Z" fill="white"/>
<path d="M258.993 173.499C260.48 172.094 260.852 169.93 259.871 168.445C259.774 168.298 259.516 168.474 259.613 168.62C260.532 170.012 260.177 172.008 258.787 173.322C258.64 173.46 258.847 173.637 258.993 173.499Z" fill="white"/>
<path d="M261.394 180.73C260.492 180.799 259.584 180.683 258.728 180.39C257.871 180.098 257.083 179.634 256.411 179.028C256.283 178.909 256.072 179.14 256.201 179.259C256.901 179.888 257.723 180.369 258.615 180.671C259.507 180.974 260.452 181.092 261.391 181.019C261.581 181.008 261.583 180.719 261.394 180.73Z" fill="white"/>
<path d="M252.847 168.481C252.622 168.794 252.331 169.054 251.994 169.242C251.657 169.43 251.283 169.541 250.897 169.568C250.708 169.577 250.706 169.866 250.894 169.857C251.32 169.826 251.733 169.702 252.106 169.495C252.479 169.288 252.802 169.003 253.054 168.658C253.08 168.631 253.095 168.595 253.096 168.557C253.096 168.519 253.082 168.482 253.056 168.454C253.024 168.431 252.985 168.421 252.946 168.426C252.908 168.431 252.872 168.451 252.847 168.481Z" fill="white"/>
<path d="M18.3 138.602H16.338V139.255H18.3V138.602Z" fill="#E6E6E6"/>
<path d="M265.229 139.255H261.246V138.602H265.229V139.255ZM257.264 139.255H253.281V138.602H257.264V139.255ZM249.298 139.255H245.316V138.602H249.298V139.255ZM241.333 139.255H237.35V138.602H241.333V139.255ZM233.367 139.255H229.385V138.602H233.367V139.255ZM225.402 139.255H221.419V138.602H225.402V139.255ZM217.436 139.255H213.454V138.602H217.436V139.255ZM209.471 139.255H205.488V138.602H209.471L209.471 139.255ZM201.505 139.255H197.523V138.602H201.505V139.255ZM193.54 139.255H189.557V138.602H193.54V139.255ZM185.575 139.255H181.592V138.602H185.575V139.255ZM177.609 139.255H173.626V138.602H177.609V139.255ZM169.644 139.255H165.661V138.602H169.644V139.255ZM161.678 139.255H157.696V138.602H161.678V139.255ZM153.713 139.255H149.73V138.602H153.713V139.255ZM145.747 139.255H141.765V138.602H145.747V139.255ZM137.782 139.255H133.799V138.602H137.782V139.255ZM129.816 139.255H125.834V138.602H129.816V139.255ZM121.851 139.255H117.868V138.602H121.851V139.255ZM113.886 139.255H109.903V138.602H113.886V139.255ZM105.92 139.255H101.937V138.602H105.92V139.255ZM97.9545 139.255H93.9719V138.602H97.9545V139.255ZM89.9892 139.255H86.0064V138.602H89.9892V139.255ZM82.0236 139.255H78.0409V138.602H82.0237L82.0236 139.255ZM74.0581 139.255H70.0755V138.602H74.0581V139.255ZM66.0928 139.255H62.11V138.602H66.0928V139.255ZM58.1272 139.255H54.1445V138.602H58.1272V139.255ZM50.1619 139.255H46.1791V138.602H50.1619V139.255ZM42.1964 139.255H38.2136V138.602H42.1964V139.255ZM34.2308 139.255H30.2482V138.602H34.2308V139.255ZM26.2655 139.255H22.2827V138.602H26.2655V139.255Z" fill="#E6E6E6"/>
<path d="M271.174 138.602H269.212V139.255H271.174V138.602Z" fill="#E6E6E6"/>
<path d="M18.3 134.028H16.338V134.682H18.3V134.028Z" fill="#E6E6E6"/>
<path d="M265.229 134.682H261.246V134.028H265.229V134.682ZM257.264 134.682H253.281V134.028H257.264V134.682ZM249.298 134.682H245.316V134.028H249.298V134.682ZM241.333 134.682H237.35V134.028H241.333V134.682ZM233.367 134.682H229.385V134.028H233.367V134.682ZM225.402 134.682H221.419V134.028H225.402V134.682ZM217.436 134.682H213.454V134.028H217.436V134.682ZM209.471 134.682H205.488V134.028H209.471L209.471 134.682ZM201.505 134.682H197.523V134.028H201.505V134.682ZM193.54 134.682H189.557V134.028H193.54V134.682ZM185.575 134.682H181.592V134.028H185.575V134.682ZM177.609 134.682H173.626V134.028H177.609V134.682ZM169.644 134.682H165.661V134.028H169.644V134.682ZM161.678 134.682H157.696V134.028H161.678V134.682ZM153.713 134.682H149.73V134.028H153.713V134.682ZM145.747 134.682H141.765V134.028H145.747V134.682ZM137.782 134.682H133.799V134.028H137.782V134.682ZM129.816 134.682H125.834V134.028H129.816V134.682ZM121.851 134.682H117.868V134.028H121.851V134.682ZM113.886 134.682H109.903V134.028H113.886V134.682ZM105.92 134.682H101.937V134.028H105.92V134.682ZM97.9545 134.682H93.9719V134.028H97.9545V134.682ZM89.9892 134.682H86.0064V134.028H89.9892V134.682ZM82.0236 134.682H78.0409V134.028H82.0237L82.0236 134.682ZM74.0581 134.682H70.0755V134.028H74.0581V134.682ZM66.0928 134.682H62.11V134.028H66.0928V134.682ZM58.1272 134.682H54.1445V134.028H58.1272V134.682ZM50.1619 134.682H46.1791V134.028H50.1619V134.682ZM42.1964 134.682H38.2136V134.028H42.1964V134.682ZM34.2308 134.682H30.2482V134.028H34.2308V134.682ZM26.2655 134.682H22.2827V134.028H26.2655V134.682Z" fill="#E6E6E6"/>
<path d="M271.174 134.028H269.212V134.682H271.174V134.028Z" fill="#E6E6E6"/>
<path d="M18.3 124.555H16.338V125.208H18.3V124.555Z" fill="#E6E6E6"/>
<path d="M265.229 125.208H261.246V124.555H265.229V125.208ZM257.264 125.208H253.281V124.555H257.264V125.208ZM249.298 125.208H245.316V124.555H249.298V125.208ZM241.333 125.208H237.35V124.555H241.333V125.208ZM233.367 125.208H229.385V124.555H233.367V125.208ZM225.402 125.208H221.419V124.555H225.402V125.208ZM217.436 125.208H213.454V124.555H217.436V125.208ZM209.471 125.208H205.488V124.555H209.471L209.471 125.208ZM201.505 125.208H197.523V124.555H201.505V125.208ZM193.54 125.208H189.557V124.555H193.54V125.208ZM185.575 125.208H181.592V124.555H185.575V125.208ZM177.609 125.208H173.626V124.555H177.609V125.208ZM169.644 125.208H165.661V124.555H169.644V125.208ZM161.678 125.208H157.696V124.555H161.678V125.208ZM153.713 125.208H149.73V124.555H153.713V125.208ZM145.747 125.208H141.765V124.555H145.747V125.208ZM137.782 125.208H133.799V124.555H137.782V125.208ZM129.816 125.208H125.834V124.555H129.816V125.208ZM121.851 125.208H117.868V124.555H121.851V125.208ZM113.886 125.208H109.903V124.555H113.886V125.208ZM105.92 125.208H101.937V124.555H105.92V125.208ZM97.9545 125.208H93.9719V124.555H97.9545V125.208ZM89.9892 125.208H86.0064V124.555H89.9892V125.208ZM82.0236 125.208H78.0409V124.555H82.0237L82.0236 125.208ZM74.0581 125.208H70.0755V124.555H74.0581V125.208ZM66.0928 125.208H62.11V124.555H66.0928V125.208ZM58.1272 125.208H54.1445V124.555H58.1272V125.208ZM50.1619 125.208H46.1791V124.555H50.1619V125.208ZM42.1964 125.208H38.2136V124.555H42.1964V125.208ZM34.2308 125.208H30.2482V124.555H34.2308V125.208ZM26.2655 125.208H22.2827V124.555H26.2655V125.208Z" fill="#E6E6E6"/>
<path d="M271.174 124.555H269.212V125.208H271.174V124.555Z" fill="#E6E6E6"/>
<path d="M18.3 118.021H16.338V118.675H18.3V118.021Z" fill="#E6E6E6"/>
<path d="M265.229 118.675H261.246V118.021H265.229V118.675ZM257.264 118.675H253.281V118.021H257.264V118.675ZM249.298 118.675H245.316V118.021H249.298V118.675ZM241.333 118.675H237.35V118.021H241.333V118.675ZM233.367 118.675H229.385V118.021H233.367V118.675ZM225.402 118.675H221.419V118.021H225.402V118.675ZM217.436 118.675H213.454V118.021H217.436V118.675ZM209.471 118.675H205.488V118.021H209.471L209.471 118.675ZM201.505 118.675H197.523V118.021H201.505V118.675ZM193.54 118.675H189.557V118.021H193.54V118.675ZM185.575 118.675H181.592V118.021H185.575V118.675ZM177.609 118.675H173.626V118.021H177.609V118.675ZM169.644 118.675H165.661V118.021H169.644V118.675ZM161.678 118.675H157.696V118.021H161.678V118.675ZM153.713 118.675H149.73V118.021H153.713V118.675ZM145.747 118.675H141.765V118.021H145.747V118.675ZM137.782 118.675H133.799V118.021H137.782V118.675ZM129.816 118.675H125.834V118.021H129.816V118.675ZM121.851 118.675H117.868V118.021H121.851V118.675ZM113.886 118.675H109.903V118.021H113.886V118.675ZM105.92 118.675H101.937V118.021H105.92V118.675ZM97.9545 118.675H93.9719V118.021H97.9545V118.675ZM89.9892 118.675H86.0064V118.021H89.9892V118.675ZM82.0236 118.675H78.0409V118.021H82.0237L82.0236 118.675ZM74.0581 118.675H70.0755V118.021H74.0581V118.675ZM66.0928 118.675H62.11V118.021H66.0928V118.675ZM58.1272 118.675H54.1445V118.021H58.1272V118.675ZM50.1619 118.675H46.1791V118.021H50.1619V118.675ZM42.1964 118.675H38.2136V118.021H42.1964V118.675ZM34.2308 118.675H30.2482V118.021H34.2308V118.675ZM26.2655 118.675H22.2827V118.021H26.2655V118.675Z" fill="#E6E6E6"/>
<path d="M271.174 118.021H269.212V118.675H271.174V118.021Z" fill="#E6E6E6"/>
<path d="M18.3 103.975H16.338V104.628H18.3V103.975Z" fill="#E6E6E6"/>
<path d="M265.229 104.628H261.246V103.975H265.229V104.628ZM257.264 104.628H253.281V103.975H257.264V104.628ZM249.298 104.628H245.316V103.975H249.298V104.628ZM241.333 104.628H237.35V103.975H241.333V104.628ZM233.367 104.628H229.385V103.975H233.367V104.628ZM225.402 104.628H221.419V103.975H225.402V104.628ZM217.436 104.628H213.454V103.975H217.436V104.628ZM209.471 104.628H205.488V103.975H209.471L209.471 104.628ZM201.505 104.628H197.523V103.975H201.505V104.628ZM193.54 104.628H189.557V103.975H193.54V104.628ZM185.575 104.628H181.592V103.975H185.575V104.628ZM177.609 104.628H173.626V103.975H177.609V104.628ZM169.644 104.628H165.661V103.975H169.644V104.628ZM161.678 104.628H157.696V103.975H161.678V104.628ZM153.713 104.628H149.73V103.975H153.713V104.628ZM145.747 104.628H141.765V103.975H145.747V104.628ZM137.782 104.628H133.799V103.975H137.782V104.628ZM129.816 104.628H125.834V103.975H129.816V104.628ZM121.851 104.628H117.868V103.975H121.851V104.628ZM113.886 104.628H109.903V103.975H113.886V104.628ZM105.92 104.628H101.937V103.975H105.92V104.628ZM97.9545 104.628H93.9719V103.975H97.9545V104.628ZM89.9892 104.628H86.0064V103.975H89.9892V104.628ZM82.0236 104.628H78.0409V103.975H82.0237L82.0236 104.628ZM74.0581 104.628H70.0755V103.975H74.0581V104.628ZM66.0928 104.628H62.11V103.975H66.0928V104.628ZM58.1272 104.628H54.1445V103.975H58.1272V104.628ZM50.1619 104.628H46.1791V103.975H50.1619V104.628ZM42.1964 104.628H38.2136V103.975H42.1964V104.628ZM34.2308 104.628H30.2482V103.975H34.2308V104.628ZM26.2655 104.628H22.2827V103.975H26.2655V104.628Z" fill="#E6E6E6"/>
<path d="M271.174 103.975H269.212V104.628H271.174V103.975Z" fill="#E6E6E6"/>
<path d="M111.34 85.0976C111.34 88.6146 110.296 92.0525 108.34 94.9768C106.384 97.901 103.604 100.18 100.351 101.526C97.0989 102.872 93.5199 103.224 90.067 102.538C86.6141 101.852 83.4425 100.158 80.9531 97.6714C78.4637 95.1845 76.7684 92.0161 76.0816 88.5667C75.3948 85.1173 75.7473 81.542 77.0945 78.2927C78.4418 75.0435 80.7232 72.2663 83.6504 70.3124C86.5776 68.3585 90.0191 67.3156 93.5396 67.3156C95.8801 67.3052 98.1994 67.758 100.364 68.648C102.528 69.5379 104.494 70.8473 106.149 72.5006C107.804 74.1539 109.115 76.1183 110.006 78.2804C110.897 80.4425 111.35 82.7595 111.34 85.0976Z" fill="#F2F2F2"/>
<path d="M100.819 80.8429L100.731 81.0015C101.515 79.0715 100.802 76.6932 99.404 75.2379C98.0056 73.7826 96.0615 73.1173 94.1472 72.8533C92.7262 72.6029 91.2649 72.7164 89.8998 73.183C87.943 73.9361 86.448 75.6793 85.1998 77.4928C84.6288 78.3222 84.0674 79.2678 84.1243 80.3045C84.1771 81.2666 84.7488 82.0831 85.2169 82.8993C85.6851 83.7156 86.076 84.7282 85.74 85.6191C85.5398 86.15 85.1167 86.5324 84.7733 86.9666C84.43 87.4009 84.1475 87.9879 84.3134 88.5328C84.387 88.7413 84.5135 88.9271 84.6806 89.0721C84.8476 89.2172 85.0494 89.3164 85.2663 89.3602C85.6864 89.4302 86.1161 89.42 86.5324 89.3302L97.444 87.6833C98.1854 87.5714 98.8888 87.282 99.4941 86.8398C100.099 86.3977 100.589 85.8158 100.92 85.1439C101.252 84.472 101.416 83.73 101.398 82.9811C101.381 82.2322 101.182 81.4986 100.819 80.8429Z" fill="#2F2E41"/>
<path d="M92.7032 87.6072C95.6496 87.6072 98.0381 85.2211 98.0381 82.2777C98.0381 79.3343 95.6496 76.9482 92.7032 76.9482C89.7569 76.9482 87.3684 79.3343 87.3684 82.2777C87.3684 85.2211 89.7569 87.6072 92.7032 87.6072Z" fill="#FFB9B9"/>
<path d="M106.905 96.8382C103.822 100.344 99.4816 102.497 94.8223 102.833C90.163 103.17 85.5582 101.662 82.0019 98.6362L83.5287 94.3804C83.8737 93.6245 84.4182 92.9767 85.1037 92.5064C85.7893 92.0361 86.59 91.7611 87.4201 91.7109L88.3914 91.6513L90.7074 89.6559C90.7074 89.6559 96.9478 89.4333 96.8552 89.3267L100.635 91.598L100.632 91.5823L102.118 91.6732C102.948 91.7233 103.749 91.9982 104.435 92.4685C105.12 92.9388 105.665 93.5867 106.009 94.3427L106.905 96.8382Z" fill="#179E66"/>
<path d="M97.7635 77.3315C97.6258 76.6037 96.8828 76.2708 96.2461 76.1095C94.3996 75.6388 92.4787 75.5335 90.5916 75.7993C89.216 75.9953 87.8077 76.4274 86.8096 77.5001C86.0047 78.4033 85.5487 79.5636 85.5234 80.7726C85.4827 81.4954 85.6444 82.2154 85.9903 82.8516C86.145 83.1478 86.3742 83.3987 86.6553 83.5797C86.9364 83.7607 87.2598 83.8655 87.5938 83.884L87.6578 84.1064C89.0388 83.8841 90.3554 83.3664 91.5175 82.5888C92.6797 81.8111 93.66 80.7918 94.3913 79.6007C94.0972 80.6498 93.512 81.5943 92.7032 82.3251C94.5115 81.6022 96.0834 80.392 97.2438 78.8292C97.5606 78.4091 97.8683 77.8851 97.7635 77.3315Z" fill="#2F2E41"/>
<path d="M245.227 108.516C255.058 108.516 263.027 100.555 263.027 90.7342C263.027 80.9134 255.058 72.9521 245.227 72.9521C235.397 72.9521 227.427 80.9134 227.427 90.7342C227.427 100.555 235.397 108.516 245.227 108.516Z" fill="#F2F2F2"/>
<path d="M240.339 84.0616C241.727 84.0616 242.852 82.9376 242.852 81.551C242.852 80.1645 241.727 79.0405 240.339 79.0405C238.951 79.0405 237.826 80.1645 237.826 81.551C237.826 82.9376 238.951 84.0616 240.339 84.0616Z" fill="#2F2E41"/>
<path d="M244.36 93.6018C247.876 93.6018 250.727 90.7543 250.727 87.2418C250.727 83.7293 247.876 80.8818 244.36 80.8818C240.844 80.8818 237.994 83.7293 237.994 87.2418C237.994 90.7543 240.844 93.6018 244.36 93.6018Z" fill="#2F2E41"/>
<path d="M244.887 93.6001C247.744 93.6001 250.06 91.2862 250.06 88.4319C250.06 85.5776 247.744 83.2637 244.887 83.2637C242.03 83.2637 239.714 85.5776 239.714 88.4319C239.714 91.2862 242.03 93.6001 244.887 93.6001Z" fill="#9E616A"/>
<path d="M248.4 83.1636C247.494 82.6115 246.455 82.3128 245.394 82.2989C244.332 82.2849 243.286 82.5561 242.365 83.0841C241.445 83.6122 240.683 84.3776 240.159 85.3005C239.636 86.2234 239.371 87.2697 239.391 88.3302C242.027 88.9914 244.796 89.4974 247.608 88.4884L248.271 86.8652L248.663 88.4896C249.519 88.8391 250.377 89.1349 251.236 88.4862C251.271 87.4287 251.027 86.3806 250.53 85.4465C250.032 84.5125 249.298 83.7253 248.4 83.1636Z" fill="#2F2E41"/>
<path d="M237.999 74.736C237.117 74.3597 236.147 74.2377 235.199 74.3836C234.251 74.5295 233.362 74.9376 232.634 75.5616C231.922 76.2035 231.38 77.0113 231.056 77.9132C230.733 78.815 230.637 79.7829 230.779 80.7305C231.064 82.6578 232.237 84.3176 233.318 85.9391C234.399 87.5606 235.455 89.3374 235.454 91.2857C235.453 92.6889 234.895 94.0346 233.903 95.0275C232.91 96.0204 231.564 96.5796 230.159 96.5824C231.808 97.2914 233.529 98.0143 235.321 97.9303C237.114 97.8462 238.994 96.6948 239.286 94.9256C239.497 93.6509 238.871 92.4079 238.349 91.2259C237.498 89.2999 236.883 87.2783 236.518 85.2052C236.343 84.2157 236.23 83.1754 236.553 82.2239C236.81 81.5189 237.287 80.915 237.914 80.5014C238.541 80.0877 239.284 79.8863 240.034 79.9267L240.626 79.3942C240.728 78.4413 240.529 77.4804 240.059 76.6455C239.588 75.8106 238.868 75.1431 237.999 74.736Z" fill="#2F2E41"/>
<path d="M258.62 102.632C255.537 106.137 251.197 108.29 246.537 108.627C241.878 108.963 237.273 107.456 233.717 104.43L235.244 100.174C235.589 99.4179 236.133 98.7701 236.819 98.2998C237.504 97.8296 238.305 97.5546 239.135 97.5043L240.106 97.4448L242.422 95.4493C242.422 95.4493 248.663 95.2267 248.57 95.1201L252.35 97.3914L252.347 97.3758L253.833 97.4667C254.663 97.5167 255.464 97.7916 256.15 98.2619C256.835 98.7322 257.38 99.3802 257.725 100.136L258.62 102.632Z" fill="#179E66"/>
<path d="M212.383 71.8135C212.376 75.3305 211.326 78.7666 209.365 81.6874C207.404 84.6081 204.62 86.8824 201.365 88.2225C198.11 89.5626 194.531 89.9084 191.079 89.2162C187.627 88.5239 184.459 86.8247 181.974 84.3335C179.489 81.8422 177.799 78.6708 177.118 75.2202C176.438 71.7696 176.797 68.1949 178.15 64.948C179.503 61.7012 181.789 58.928 184.72 56.9793C187.65 55.0306 191.094 53.9938 194.614 54C196.953 53.9981 199.27 54.458 201.431 55.3533C203.592 56.2486 205.554 57.5617 207.205 59.217C208.856 60.8724 210.164 62.8374 211.052 64.9991C211.941 67.1608 212.393 69.4767 212.383 71.8135Z" fill="#F2F2F2"/>
<path d="M186.333 65.9974C187.069 63.6541 188.742 61.5049 191.057 60.7127C193.372 59.9206 196.762 61.1273 198.502 62.8599C201.685 66.0293 202.462 76.9171 200.275 80.3577C199.84 80.3347 198.339 80.3177 197.898 80.3012L197.276 78.2275V80.2808C196.574 80.2591 195.867 80.2442 195.155 80.2359C192.766 80.2063 190.482 79.2528 188.783 77.5757C187.083 75.8986 186.101 73.6287 186.042 71.2431C185.985 68.9609 186.042 66.9209 186.333 65.9974Z" fill="#2F2E41"/>
<path d="M194.319 73.7639C197.12 73.7639 199.392 71.495 199.392 68.6962C199.392 65.8973 197.12 63.6284 194.319 63.6284C191.517 63.6284 189.246 65.8973 189.246 68.6962C189.246 71.495 191.517 73.7639 194.319 73.7639Z" fill="#9E616A"/>
<path d="M189.941 64.2455L195.782 61.3237C196.976 61.8613 198.004 62.7082 198.76 63.7767C199.516 64.8451 199.972 66.0962 200.081 67.4001L200.227 69.1422L197.781 68.5202L197.513 66.2926L197.098 68.3465L195.969 68.0596L195.98 64.6012L194.85 68.0571L190.819 67.1318L189.941 64.2455Z" fill="#2F2E41"/>
<path d="M207.792 83.5492C204.708 87.0545 200.368 89.2078 195.708 89.5442C191.049 89.8806 186.444 88.3731 182.888 85.3471L184.415 81.0913C184.76 80.3354 185.304 79.6876 185.99 79.2173C186.675 78.747 187.476 78.472 188.306 78.4218L189.278 78.3622L191.594 76.3668C191.594 76.3668 197.834 76.1442 197.741 76.0376L201.521 78.3089L201.518 78.2933L203.004 78.3842C203.834 78.4342 204.635 78.7091 205.321 79.1794C206.006 79.6497 206.551 80.2977 206.896 81.0537L207.792 83.5492Z" fill="#179E66"/>
<path d="M145.649 118.316C155.479 118.316 163.449 110.355 163.449 100.534C163.449 90.7132 155.479 82.752 145.649 82.752C135.818 82.752 127.849 90.7132 127.849 100.534C127.849 110.355 135.818 118.316 145.649 118.316Z" fill="#F2F2F2"/>
<path d="M145.157 102.737C148.295 102.737 150.839 100.195 150.839 97.0605C150.839 93.9256 148.295 91.3843 145.157 91.3843C142.019 91.3843 139.475 93.9256 139.475 97.0605C139.475 100.195 142.019 102.737 145.157 102.737Z" fill="#FFB6B6"/>
<path d="M159.003 112.432C155.919 115.937 151.579 118.09 146.92 118.427C142.26 118.763 137.656 117.255 134.099 114.229L135.626 109.974C135.971 109.218 136.515 108.57 137.201 108.1C137.887 107.629 138.687 107.354 139.517 107.304L140.489 107.245L142.805 105.249C142.805 105.249 149.045 105.027 148.952 104.92L152.732 107.191L152.729 107.176L154.215 107.266C155.045 107.317 155.846 107.591 156.532 108.062C157.217 108.532 157.762 109.18 158.107 109.936L159.003 112.432Z" fill="#179E66"/>
<path d="M151.15 93.5405C150.67 91.8237 149.579 90.341 148.082 89.3707C146.889 88.6085 145.401 88.2194 144.049 88.6225C142.698 89.0255 141.579 90.3505 141.667 91.782C141.417 91.7163 141.153 91.7219 140.906 91.7982C140.659 91.8745 140.438 92.0184 140.268 92.2137C139.929 92.6136 139.693 93.0905 139.581 93.6025C139.148 95.2075 139.176 96.9022 139.664 98.4916L139.637 98.7197C140.297 98.6107 140.797 98.0456 141.108 97.4435C141.419 96.8414 141.598 96.1734 141.935 95.586C142.272 94.9986 142.832 94.4746 143.499 94.4563L143.44 95.4759C144.015 95.1802 144.589 94.8846 145.164 94.5889C145.027 94.9154 144.891 95.242 144.754 95.5685C145.256 95.359 145.757 95.1496 146.259 94.9401C146.203 95.2541 146.147 95.5681 146.091 95.882C146.222 95.6095 146.408 95.3664 146.636 95.1676C146.864 94.9687 147.131 94.8182 147.419 94.7251C147.707 94.632 148.011 94.5983 148.313 94.626C148.614 94.6537 148.907 94.7422 149.174 94.8862C149.774 95.2895 150.206 95.8972 150.39 96.5958C150.572 97.2928 150.67 98.0092 150.681 98.7294C151.457 97.1122 151.623 95.2702 151.15 93.5405Z" fill="#2F2E41"/>
<path d="M42.5983 126.4C52.429 126.4 60.3983 118.439 60.3983 108.618C60.3983 98.7972 52.429 90.8359 42.5983 90.8359C32.7676 90.8359 24.7982 98.7972 24.7982 108.618C24.7982 118.439 32.7676 126.4 42.5983 126.4Z" fill="#F2F2F2"/>
<path d="M42.2064 110.463C45.1888 110.463 47.6065 108.047 47.6065 105.068C47.6065 102.089 45.1888 99.6733 42.2064 99.6733C39.224 99.6733 36.8063 102.089 36.8063 105.068C36.8063 108.047 39.224 110.463 42.2064 110.463Z" fill="#9E616A"/>
<path d="M55.7231 120.359C52.6393 123.864 48.2993 126.017 43.6401 126.354C38.9808 126.69 34.376 125.183 30.8197 122.157L32.3464 117.901C32.6915 117.145 33.2359 116.497 33.9215 116.027C34.607 115.557 35.4078 115.282 36.2378 115.231L37.2091 115.172L39.5251 113.176C39.5251 113.176 45.7655 112.954 45.6729 112.847L49.453 115.119L49.4498 115.103L50.9358 115.194C51.7659 115.244 52.5667 115.519 53.2523 115.989C53.9379 116.459 54.4823 117.107 54.8272 117.863L55.7231 120.359Z" fill="#179E66"/>
<path d="M37.2998 107.562C37.2892 107.533 37.2795 107.503 37.269 107.473C37.2482 107.491 37.2283 107.51 37.2058 107.527L37.2998 107.562Z" fill="#2F2E41"/>
<path d="M48.6752 103.149C48.6475 102.601 48.504 102.066 48.2541 101.578C48.0042 101.09 47.6536 100.66 47.2255 100.318C46.8848 100.105 46.5844 99.8338 46.3383 99.5166C46.2195 99.2741 46.1188 99.0232 46.037 98.7658C45.6224 97.7801 44.441 97.2562 43.3812 97.4055C42.8542 97.5055 42.3528 97.7107 41.907 98.0087C41.4612 98.3067 41.0801 98.6915 40.7865 99.14C40.4821 98.9943 40.1423 98.9388 39.8074 98.98C39.4724 99.0213 39.1562 99.1575 38.8964 99.3727C38.6365 99.5879 38.4438 99.8729 38.3411 100.194C38.2384 100.515 38.23 100.859 38.3168 101.185C37.768 100.743 36.8803 101.097 36.5377 101.712C36.1951 102.327 36.2495 103.08 36.3513 103.777C36.5358 105.036 36.8432 106.274 37.269 107.473C37.8034 107.003 37.7706 106.147 37.7053 105.423C37.6374 104.671 37.6781 103.753 38.3361 103.382C38.972 103.024 39.7437 103.417 40.4447 103.621C40.999 103.778 41.5807 103.813 42.1498 103.723C42.7189 103.634 43.2618 103.422 43.7412 103.103C44.0861 102.829 44.4481 102.577 44.8251 102.348C45.0155 102.236 45.2317 102.175 45.4528 102.171C45.6738 102.167 45.8921 102.221 46.0863 102.326C46.3938 102.591 46.6003 102.953 46.671 103.353C46.941 104.267 47.2109 105.181 47.4808 106.096C47.8771 105.717 48.1884 105.258 48.3943 104.75C48.6001 104.242 48.6959 103.696 48.6752 103.149Z" fill="#2F2E41"/>
<path d="M42.6575 140.085H40.9584V189.838H42.6575V140.085Z" fill="#3F3D56"/>
<path d="M93.5268 116.849H91.8276V189.838H93.5268V116.849Z" fill="#3F3D56"/>
<path d="M144.501 132.126H142.802V189.838H144.501V132.126Z" fill="#3F3D56"/>
<path d="M195.475 104.119H193.776V189.838H195.475V104.119Z" fill="#3F3D56"/>
<path d="M246.449 123.639H244.75V189.838H246.449V123.639Z" fill="#3F3D56"/>
<path d="M92.782 123.212C95.6527 123.212 97.9799 120.887 97.9799 118.019C97.9799 115.151 95.6527 112.827 92.782 112.827C89.9112 112.827 87.584 115.151 87.584 118.019C87.584 120.887 89.9112 123.212 92.782 123.212Z" fill="#179E66"/>
<path d="M194.73 109.633C197.601 109.633 199.928 107.308 199.928 104.44C199.928 101.572 197.601 99.2476 194.73 99.2476C191.859 99.2476 189.532 101.572 189.532 104.44C189.532 107.308 191.859 109.633 194.73 109.633Z" fill="#179E66"/>
<path d="M143.756 137.64C146.627 137.64 148.954 135.315 148.954 132.447C148.954 129.579 146.627 127.254 143.756 127.254C140.885 127.254 138.558 129.579 138.558 132.447C138.558 135.315 140.885 137.64 143.756 137.64Z" fill="#179E66"/>
<path d="M41.808 145.278C44.6787 145.278 47.0059 142.954 47.0059 140.086C47.0059 137.218 44.6787 134.893 41.808 134.893C38.9372 134.893 36.6101 137.218 36.6101 140.086C36.6101 142.954 38.9372 145.278 41.808 145.278Z" fill="#179E66"/>
<path d="M245.704 128.304C248.575 128.304 250.902 125.979 250.902 123.112C250.902 120.244 248.575 117.919 245.704 117.919C242.833 117.919 240.506 120.244 240.506 123.112C240.506 125.979 242.833 128.304 245.704 128.304Z" fill="#179E66"/>
<path d="M282.166 189.325H6.21234L4.47971 190.191C4.47972 190.42 4.57099 190.64 4.73346 190.803C4.89592 190.965 5.11627 191.056 5.34603 191.056H282.166C282.396 191.056 282.616 190.965 282.778 190.803C282.941 190.64 283.032 190.42 283.032 190.191C283.032 189.961 282.941 189.741 282.778 189.579C282.616 189.416 282.396 189.325 282.166 189.325Z" fill="#3F3D56"/>
<path d="M5.19792 194.973C8.06865 194.973 10.3958 192.648 10.3958 189.781C10.3958 186.913 8.06865 184.588 5.19792 184.588C2.32719 184.588 0 186.913 0 189.781C0 192.648 2.32719 194.973 5.19792 194.973Z" fill="#3F3D56"/>
<path d="M41.8219 210C44.6927 210 47.0199 207.675 47.0199 204.807C47.0199 201.94 44.6927 199.615 41.8219 199.615C38.9512 199.615 36.624 201.94 36.624 204.807C36.624 207.675 38.9512 210 41.8219 210Z" fill="#E6E6E6"/>
<path d="M92.834 210C95.7047 210 98.0319 207.675 98.0319 204.807C98.0319 201.94 95.7047 199.615 92.834 199.615C89.9632 199.615 87.636 201.94 87.636 204.807C87.636 207.675 89.9632 210 92.834 210Z" fill="#E6E6E6"/>
<path d="M143.846 210C146.717 210 149.044 207.675 149.044 204.807C149.044 201.94 146.717 199.615 143.846 199.615C140.975 199.615 138.648 201.94 138.648 204.807C138.648 207.675 140.975 210 143.846 210Z" fill="#E6E6E6"/>
<path d="M194.531 210C197.402 210 199.729 207.675 199.729 204.807C199.729 201.94 197.402 199.615 194.531 199.615C191.66 199.615 189.333 201.94 189.333 204.807C189.333 207.675 191.66 210 194.531 210Z" fill="#E6E6E6"/>
<path d="M245.543 210C248.414 210 250.741 207.675 250.741 204.807C250.741 201.94 248.414 199.615 245.543 199.615C242.672 199.615 240.345 201.94 240.345 204.807C240.345 207.675 242.672 210 245.543 210Z" fill="#E6E6E6"/>
<path d="M283.802 194.973C286.673 194.973 289 192.648 289 189.781C289 186.913 286.673 184.588 283.802 184.588C280.931 184.588 278.604 186.913 278.604 189.781C278.604 192.648 280.931 194.973 283.802 194.973Z" fill="#3F3D56"/>
</g>
<defs>
<clipPath id="clip0_86_194">
<rect width="289" height="156" fill="white" transform="translate(0 54)"/>
</clipPath>
</defs>
</svg>
