<svg width="277" height="263" viewBox="0 0 277 263" fill="none" xmlns="http://www.w3.org/2000/svg">
<path opacity="0.18" d="M130.127 17.0397C125.194 17.1188 120.278 17.6784 115.446 18.7014C97.3271 22.754 82.3544 35.2282 68.7863 47.9625C57.4374 58.6111 46.2683 70.1244 40.3635 84.5656C34.7171 98.419 34.3576 114.109 27.8235 127.607C23.6885 136.164 17.3173 143.365 12.2497 151.408C3.69867 165.001 -0.683574 182.997 6.9067 197.196C11.2271 205.267 18.8006 211.015 26.3628 216.13C45.7177 229.237 67.0783 240.197 90.1582 243.616C98.9676 244.922 107.901 245.126 116.8 245.555C124.48 245.939 132.245 246.516 139.796 245.075C158.684 241.463 172.994 226.095 190.5 218.103C202.95 212.417 216.771 210.602 229.997 207.194C243.222 203.78 256.745 198.241 265.06 187.304C272.482 177.543 274.561 165.137 275.853 153.228C277.1 141.759 270.117 131.02 265.847 120.474C256.616 97.6786 246.97 74.6122 230.12 56.2937C212.889 37.6643 190.293 24.9244 165.505 19.8544C156.235 18.0797 146.824 17.1358 137.391 17.0397C134.975 16.9945 132.548 16.9775 130.127 17.0453V17.0397Z" fill="#30C285"/>
<path opacity="0.4" d="M218.76 109.68C221.501 109.68 223.722 106.87 223.722 103.405C223.722 99.9386 221.501 97.1289 218.76 97.1289C216.02 97.1289 213.799 99.9386 213.799 103.405C213.799 106.87 216.02 109.68 218.76 109.68Z" fill="#179E66"/>
<path opacity="0.4" d="M114.151 75.1543C118.057 75.1543 121.224 71.1491 121.224 66.2083C121.224 61.2675 118.057 57.2622 114.151 57.2622C110.245 57.2622 107.078 61.2675 107.078 66.2083C107.078 71.1491 110.245 75.1543 114.151 75.1543Z" fill="#179E66"/>
<path opacity="0.4" d="M101.061 76.7568C103.801 76.7568 106.023 73.9471 106.023 70.4812C106.023 67.0152 103.801 64.2056 101.061 64.2056C98.3209 64.2056 96.0996 67.0152 96.0996 70.4812C96.0996 73.9471 98.3209 76.7568 101.061 76.7568Z" fill="#179E66"/>
<path d="M222.916 173.582C218.995 179.011 218.853 186.919 218.853 186.919C218.853 186.919 225.067 186.025 228.987 180.597C232.907 175.168 233.05 167.26 233.05 167.26C233.05 167.26 226.836 168.153 222.916 173.582Z" fill="#3F3D56"/>
<path d="M225.13 175.145C223.944 182.343 218.957 187.116 218.957 187.116C218.957 187.116 215.894 180.22 217.081 173.022C218.267 165.824 223.253 161.051 223.253 161.051C223.253 161.051 226.317 167.947 225.13 175.145Z" fill="#179E66"/>
<path d="M220.039 100.873V186.677L197.426 210.305H81.7421V120.355L115.497 100.873H220.039Z" fill="#3F3D56"/>
<path opacity="0.1" d="M220.039 100.873V101.216L211.921 108.089L197.426 120.355H81.7421L115.497 100.873H220.039Z" fill="black"/>
<path opacity="0.1" d="M220.039 100.873V186.677L197.426 210.305L197.59 120.148L211.921 108.089L219.908 100.873H220.039Z" fill="black"/>
<path d="M189.561 112.686H119.102L124.345 108.956H191.855L189.561 112.686Z" fill="#2F2E41"/>
<path d="M250.372 214.972C250.372 214.972 251.738 222.197 250.496 222.511C249.255 222.825 243.17 222.724 241.68 223.038C240.19 223.352 237.085 222.825 237.085 221.411C237.085 219.998 240.314 219.055 240.314 219.055C240.314 219.055 244.908 215.914 245.033 215.757C245.157 215.6 250.372 214.972 250.372 214.972Z" fill="#2F2E41"/>
<path d="M249.255 172.407C249.255 172.407 248.882 177.747 248.882 178.218C248.882 178.69 249.255 186.072 248.882 186.386C248.51 186.7 249.13 188.899 249.13 189.684C249.13 190.469 251.117 203.506 250.621 208.532C250.124 213.558 251.366 213.087 250.993 213.558C250.621 214.029 250.621 214.029 250.621 214.972C250.621 215.914 246.647 216.699 246.647 216.699L242.301 181.988L244.536 171.622L249.255 172.407Z" fill="#575A89"/>
<path opacity="0.1" d="M249.255 172.407C249.255 172.407 248.882 177.747 248.882 178.218C248.882 178.69 249.255 186.072 248.882 186.386C248.51 186.7 249.13 188.899 249.13 189.684C249.13 190.469 251.117 203.506 250.621 208.532C250.124 213.558 251.366 213.087 250.993 213.558C250.621 214.029 250.621 214.029 250.621 214.972C250.621 215.914 246.647 216.699 246.647 216.699L242.301 181.988L244.536 171.622L249.255 172.407Z" fill="black"/>
<path d="M248.634 217.17C248.634 217.17 249.876 222.825 248.634 223.139C247.392 223.453 241.307 222.779 239.817 223.093C238.327 223.407 235.223 223.453 235.223 222.039C235.223 220.626 238.451 219.683 238.451 219.683C238.451 219.683 243.046 216.542 243.17 216.385C243.294 216.228 248.634 217.17 248.634 217.17Z" fill="#2F2E41"/>
<path d="M250.372 166.125C250.372 166.125 251.862 170.679 250.124 173.035C248.385 175.391 246.399 180.103 246.399 180.417C246.399 180.732 249.876 211.988 249.379 214.029C248.882 216.071 249.006 217.328 249.13 217.642C249.255 217.956 247.889 219.684 246.399 219.684C244.908 219.684 242.673 218.27 242.425 217.014C242.177 215.757 242.797 204.92 242.673 202.878C242.549 200.836 241.928 197.852 241.68 197.223C241.432 196.595 240.066 195.967 239.817 194.082C239.569 192.197 237.582 168.166 238.203 167.381C238.824 166.596 250.372 166.125 250.372 166.125Z" fill="#575A89"/>
<path d="M240.935 129.999C243.267 129.999 245.157 127.608 245.157 124.659C245.157 121.71 243.267 119.319 240.935 119.319C238.603 119.319 236.713 121.71 236.713 124.659C236.713 127.608 238.603 129.999 240.935 129.999Z" fill="#FFB9B9"/>
<path d="M243.543 127.329C243.543 127.329 242.673 133.14 243.294 133.769C243.915 134.397 238.576 135.339 238.576 135.339C238.576 135.339 237.955 127.643 237.83 126.858C237.706 126.072 243.543 127.329 243.543 127.329Z" fill="#FFB9B9"/>
<path d="M237.83 134.869C237.83 134.869 239.321 129.371 245.405 130.942C245.405 130.942 246.523 131.413 246.15 131.884C245.778 132.355 245.405 132.355 245.902 132.827C246.399 133.298 247.02 132.827 246.647 133.298C246.274 133.769 250 136.596 249.751 141.936C249.503 147.277 250.621 154.816 249.751 156.072C248.882 157.329 250.372 162.826 250.124 163.926C249.876 165.025 251.614 166.439 250.869 166.91C250.124 167.381 236.713 170.208 236.34 166.91C235.968 163.611 236.216 165.967 235.844 165.182C235.471 164.397 235.347 162.983 235.595 161.255C235.844 159.528 236.465 155.287 236.216 153.716C235.968 152.146 236.216 138.952 236.961 137.382C237.706 135.811 237.83 134.869 237.83 134.869Z" fill="#179E66"/>
<path d="M240.438 173.192C240.438 173.192 242.301 182.145 239.941 182.145C237.582 182.145 237.706 172.878 237.706 172.878L240.438 173.192Z" fill="#FFB9B9"/>
<path d="M239.072 124.659C239.072 125.115 239.594 125.404 240.402 125.47H240.403C240.746 125.495 241.09 125.486 241.431 125.445C241.948 125.385 242.162 125.999 242.25 126.81C242.394 128.146 242.193 130.02 242.425 130.314C242.745 130.719 245.081 130.312 245.811 129.393C245.925 129.265 246.001 129.091 246.026 128.9C246.103 128.339 246.321 127.825 246.649 127.435C247.08 126.84 247.694 126.18 248.385 125.131C249.627 123.246 248.385 123.089 248.013 121.675C247.64 120.262 247.019 119.79 247.019 118.848C247.019 117.906 244.163 117.12 241.804 117.277C239.445 117.435 239.941 121.204 239.941 121.204C239.941 121.204 239.801 121.66 239.633 122.247C239.407 122.984 239.222 123.741 239.082 124.512C239.076 124.561 239.073 124.61 239.072 124.659Z" fill="#2F2E41"/>
<path opacity="0.1" d="M239.569 137.224C239.569 137.224 243.791 136.91 244.163 144.764C244.536 152.617 244.412 159.999 244.412 160.156C244.412 160.313 242.673 175.234 241.059 175.234C239.445 175.234 238.203 174.92 237.83 174.135C237.458 173.349 238.824 162.041 238.824 162.041C238.824 162.041 239.445 150.104 238.451 146.334C237.458 142.565 237.334 137.696 239.569 137.224Z" fill="black"/>
<path d="M238.948 136.439C238.948 136.439 243.17 136.125 243.543 143.978C243.915 151.831 243.791 159.213 243.791 159.37C243.791 159.527 242.052 174.449 240.438 174.449C238.824 174.449 237.582 174.134 237.21 173.349C236.837 172.564 238.203 161.255 238.203 161.255C238.203 161.255 238.824 149.318 237.83 145.549C236.837 141.779 236.713 136.91 238.948 136.439Z" fill="#179E66"/>
<path d="M168.938 59.6638C168.938 59.6638 167.098 53.0698 165.769 55.1386C164.44 57.2073 167.814 60.6982 167.814 60.6982L168.938 59.6638Z" fill="#A0616A"/>
<path d="M177.627 53.1992L176.52 53.7181C176.52 53.7181 175.991 56.6902 176.196 57.2073C176.4 57.7245 176.502 57.3366 176.196 58.371C175.889 59.4053 174.969 62.1205 174.867 62.5084C174.765 62.8963 168.938 60.0518 168.938 58.6296C168.938 58.6296 167.711 60.4397 167.098 60.8276C167.098 60.8276 173.845 67.0337 174.765 67.8095C175.685 68.5852 176.196 68.1973 177.014 67.2923C177.831 66.3872 181.307 58.8882 181.307 58.8882L177.627 53.1992Z" fill="#575A89"/>
<path d="M174.662 99.0981C174.662 99.0981 174.765 100.52 174.969 100.65C175.174 100.779 176.707 104.011 174.969 104.658C173.231 105.304 172.209 105.046 171.8 105.304C171.391 105.563 164.236 106.08 164.134 104.658C164.032 103.235 167.609 102.977 167.609 102.977C167.609 102.977 170.88 100.262 171.391 98.8394C171.902 97.4172 174.662 99.0981 174.662 99.0981Z" fill="#2F2E41"/>
<path d="M195.413 101.685C195.413 101.685 197.866 106.986 197.253 107.632C196.64 108.279 190.667 110.634 189.791 110.735C188.667 110.864 187.849 109.701 188.769 109.054C189.689 108.408 191.631 105.693 191.631 104.788V102.46L195.413 101.685Z" fill="#2F2E41"/>
<path d="M197.764 67.0332C197.764 67.0332 199.911 70.3949 196.538 75.8252L190.915 84.8758C190.915 84.8758 194.391 91.8577 194.493 95.4779C194.595 99.0981 195.311 98.3224 195.515 99.8739C195.72 101.425 196.64 100.65 195.924 101.813C195.209 102.977 192.551 104.011 191.733 103.106C191.452 102.781 191.232 102.379 191.091 101.932C190.949 101.484 190.889 101.001 190.915 100.52C190.915 100.003 189.484 97.0294 189.382 96.1244C189.28 95.2193 185.498 87.8496 185.498 87.8496C185.498 87.8496 184.271 83.4536 185.702 80.997C187.133 78.5404 188.079 75.0562 188.079 75.0562C188.079 75.0562 183.862 81.5141 180.898 83.0657C180.898 83.0657 179.773 83.3243 179.978 83.9707C180.182 84.6172 179.978 85.0051 179.671 85.6516C179.365 86.298 177.218 93.7971 176.502 95.7365C175.787 97.6759 176.094 98.8396 175.276 99.486C174.458 100.133 170.778 99.6153 170.778 98.9689C170.778 98.3224 171.289 96.6416 171.596 95.7365C171.902 94.8314 174.356 84.3586 174.151 82.5485C173.947 80.7384 174.254 78.2818 175.787 77.2474C177.32 76.2131 185.089 67.809 185.498 67.809C185.907 67.809 197.764 67.0332 197.764 67.0332Z" fill="#2F2E41"/>
<path d="M177.218 46.7342C179.589 46.7342 181.511 44.303 181.511 41.3039C181.511 38.3048 179.589 35.8735 177.218 35.8735C174.847 35.8735 172.925 38.3048 172.925 41.3039C172.925 44.303 174.847 46.7342 177.218 46.7342Z" fill="#A0616A"/>
<path d="M180.693 41.8208C180.693 41.8208 182.022 44.7946 183.658 45.1825C185.293 45.5704 179.365 51.5179 179.365 51.5179C179.365 51.5179 177.933 45.8289 176.707 45.5703C175.48 45.3118 180.693 41.8208 180.693 41.8208Z" fill="#A0616A"/>
<path d="M176.502 53.9744C176.502 55.6553 180.489 60.4391 180.489 60.4391L184.271 64.4472C184.271 64.4472 184.373 65.8695 184.782 65.9988C185.191 66.1281 185.702 66.1281 185.293 66.9038C184.884 67.6796 183.862 69.3604 184.782 69.619C185.06 69.6724 185.339 69.706 185.619 69.7198C185.865 69.7379 186.153 69.7548 186.477 69.7703C187.234 69.8039 188.18 69.8259 189.205 69.8168C189.497 69.8155 189.793 69.8112 190.095 69.8039C193.96 69.7069 198.437 69.1445 198.071 67.2917C197.458 64.1886 197.866 63.1543 196.538 61.4735C195.209 59.7926 193.062 53.9744 193.062 53.9744C193.062 53.9744 188.769 44.7945 185.191 44.7945L184.448 44.5476C184.103 44.4325 183.738 44.4578 183.404 44.6197C183.071 44.7817 182.786 45.0722 182.591 45.4501C181.873 46.8322 180.741 48.9087 180.08 49.5784C179.058 50.6128 178.898 49.8706 178.898 49.8706C178.898 49.8706 176.502 52.2936 176.502 53.9744Z" fill="#575A89"/>
<path d="M185.6 73.6274C185.6 73.6274 182.636 79.4457 184.476 80.48C186.316 81.5144 187.338 74.4032 187.338 74.4032L185.6 73.6274Z" fill="#A0616A"/>
<path d="M180.025 40.6906C179.86 40.6643 179.808 40.4013 179.78 40.1942C179.632 39.0851 178.978 38.0333 178.1 37.8543C177.764 37.7978 177.423 37.8326 177.099 37.9563C176.635 38.1175 176.199 38.3888 175.815 38.756C175.627 38.9733 175.409 39.146 175.173 39.2657C175.012 39.3256 174.328 39.7102 174.168 39.7753C173.817 39.9184 173.526 40.3836 173.164 40.2915C172.818 40.2034 172.686 39.6745 172.63 39.2334C172.504 38.2284 172.958 36.7289 173.411 35.8871C173.754 35.2483 174.334 34.8807 174.915 34.6415C175.595 34.3804 176.294 34.2048 177.001 34.1172C177.956 33.9745 178.945 33.8988 179.861 34.2722C180.776 34.6455 181.609 35.5589 181.78 36.7558C181.815 37.0051 181.822 37.2605 181.866 37.5078C181.972 38.111 182.288 38.6181 182.472 39.1906C182.605 39.6111 182.666 40.0621 182.653 40.5146C182.639 40.967 182.551 41.4109 182.394 41.8176C182.139 42.4659 181.695 43.089 181.791 43.8029L181.002 43.0162C180.888 42.9342 180.8 42.8053 180.752 42.651C180.704 42.4966 180.699 42.3262 180.739 42.168L180.854 40.9187C180.893 40.6924 180.875 40.456 180.802 40.2433C180.452 39.4686 180.299 40.7344 180.025 40.6906Z" fill="#2F2E41"/>
<path opacity="0.1" d="M187.44 64.7061L186.477 69.7705C187.448 69.8145 188.733 69.8377 190.095 69.8041C190.438 68.5008 190.766 67.142 191.018 65.8697C191.938 61.2151 190.404 54.1039 189.587 50.7423C188.769 47.3806 186.724 46.4756 186.724 46.4756C185.886 46.8484 185.095 47.3709 184.373 48.0271C183.045 49.1908 187.44 64.7061 187.44 64.7061Z" fill="black"/>
<path opacity="0.1" d="M186.622 64.4473L185.619 69.7199C185.865 69.738 186.153 69.7548 186.477 69.7703C187.233 69.8039 188.18 69.8259 189.205 69.8168C189.574 68.4321 189.931 66.9711 190.2 65.6109C191.12 60.9563 189.587 53.8451 188.769 50.4835C187.951 47.1218 186.162 50.8067 186.162 50.8067C186.162 50.8067 186.878 48.6087 185.549 49.7724C184.22 50.936 186.622 64.4473 186.622 64.4473Z" fill="black"/>
<path d="M186.316 46.2173C186.316 46.2173 188.36 47.1223 189.178 50.484C189.996 53.8456 191.529 60.9568 190.609 65.6114C189.689 70.266 187.747 76.0842 187.747 76.0842C187.747 76.0842 185.805 74.2741 185.089 74.662L187.031 64.4478C187.031 64.4478 182.636 48.9325 183.965 47.7688C184.686 47.1126 185.477 46.5901 186.316 46.2173Z" fill="#575A89"/>
<path d="M187.839 111.07L159.558 36.5273L112.27 65.2303L129.662 111.07H187.839Z" fill="#F2F2F2"/>
<path d="M149.988 65.7871L124.872 81.0322L125.62 83.0041L150.736 67.7589L149.988 65.7871Z" fill="#3F3D56"/>
<path d="M156.638 83.3144L131.521 98.5596L132.27 100.531L157.386 85.2863L156.638 83.3144Z" fill="#3F3D56"/>
<path d="M161.206 55.4738L154.97 59.2588L157.962 67.1462L164.198 63.3612L161.206 55.4738Z" fill="#3F3D56"/>
<path d="M167.856 73.0011L161.62 76.7861L164.612 84.6735L170.848 80.8885L167.856 73.0011Z" fill="#3F3D56"/>
<path d="M161.635 50.0107L159.067 59.2529L155.605 57.7138L155.132 59.4186L159.937 61.5547L162.983 50.61L161.635 50.0107Z" fill="#57B894"/>
<path d="M168.285 67.5381L165.717 76.7802L162.255 75.2414L161.782 76.946L166.587 79.082L169.633 68.1373L168.285 67.5381Z" fill="#57B894"/>
<path d="M46.7293 196.864L59.5065 193.412L56.7772 177.25L44 180.703L46.7293 196.864Z" fill="#F2F2F2"/>
<path d="M59.1511 172.932C59.1511 172.932 54.4581 177.172 56.0224 178.868C57.5868 180.564 60.7155 173.78 60.7155 173.78L59.1511 172.932Z" fill="#FFB9B9"/>
<path d="M80.8287 179.433C80.8287 179.433 79.9348 193.567 79.7113 195.545C79.4878 197.524 79.2644 215.332 78.8174 217.311C78.3704 219.29 77.9235 224.095 77.9235 224.095H75.2417C75.2417 224.095 75.4652 215.332 74.7948 211.94C74.1243 208.548 74.3478 199.22 74.3478 199.22C74.3478 199.22 73.0069 182.543 73.6774 180.281C74.3478 178.02 80.8287 179.433 80.8287 179.433Z" fill="#FFB9B9"/>
<path d="M77.253 223.248C77.253 223.248 78.3704 224.096 78.3704 224.661C78.3704 225.226 78.1469 226.64 78.3704 227.205C78.5939 227.77 80.1582 230.032 79.2643 230.597C78.3704 231.162 74.3478 230.597 74.3478 230.597C74.3478 230.597 74.5712 226.64 74.7947 226.357C75.0182 226.074 74.5712 223.248 74.5712 223.248H77.253Z" fill="#2F2E41"/>
<path d="M63.7449 179.087C63.7449 179.087 63.461 193.261 63.519 195.258C63.577 197.256 62.3214 214.995 62.6017 217.022C62.882 219.05 62.9277 223.888 62.9277 223.888L65.5947 224.244C65.5947 224.244 66.0996 215.5 67.0478 212.215C67.9961 208.931 68.5479 199.625 68.5479 199.625C68.5479 199.625 71.2654 183.218 70.7864 180.88C70.3073 178.542 63.7449 179.087 63.7449 179.087Z" fill="#FFB9B9"/>
<path d="M63.6649 223.134C63.6649 223.134 62.4833 223.829 62.4364 224.391C62.3895 224.953 62.4945 226.388 62.2253 226.921C61.9561 227.454 60.2128 229.495 61.0548 230.176C61.8969 230.856 65.9442 230.828 65.9442 230.828C65.9442 230.828 66.0504 226.863 65.8516 226.552C65.6528 226.242 66.3319 223.49 66.3319 223.49L63.6649 223.134Z" fill="#2F2E41"/>
<path d="M77.6999 158.233C77.6999 158.233 79.4878 158.516 80.1582 163.321C80.8286 168.127 83.2869 180.282 81.2756 181.13C79.2643 181.978 73.2303 183.674 73.0068 183.108C72.7834 182.543 72.3364 181.13 72.3364 181.13C72.3364 181.13 73.0068 183.674 72.1129 183.674C71.219 183.674 62.5033 181.978 62.7268 181.13C62.9502 180.282 63.3972 174.063 63.3972 174.063C63.3972 174.063 64.7381 163.604 66.079 161.908C66.467 161.437 66.7683 160.863 66.9614 160.228C67.1545 159.593 67.2347 158.912 67.1964 158.233H77.6999Z" fill="#2F2E41"/>
<path d="M81.0522 155.972C81.0522 155.972 78.147 155.124 77.7 156.255C77.253 157.386 78.8174 159.082 79.4878 159.082C80.1583 159.082 81.2757 158.234 81.2757 158.234L81.0522 155.972Z" fill="#FFB9B9"/>
<path d="M75.0182 131.945C77.2398 131.945 79.0408 129.667 79.0408 126.857C79.0408 124.047 77.2398 121.769 75.0182 121.769C72.7966 121.769 70.9956 124.047 70.9956 126.857C70.9956 129.667 72.7966 131.945 75.0182 131.945Z" fill="#FFB9B9"/>
<path d="M74.3478 130.532C74.3478 130.532 73.6774 134.489 74.1243 134.489C74.5713 134.489 70.7721 137.033 70.7721 137.033L67.8669 136.468L66.973 134.772C66.973 134.772 71.666 130.815 71.666 128.553C71.666 126.292 74.3478 130.532 74.3478 130.532Z" fill="#FFB9B9"/>
<path d="M72.3364 134.489C72.3364 134.489 73.0069 133.924 73.2304 133.924H75.0182C75.2417 133.924 78.1469 134.772 78.1469 134.772L79.9348 147.492C79.9348 147.492 76.8061 153.993 79.0409 159.081C79.0409 159.081 78.3704 158.516 75.2417 158.799C72.113 159.081 66.526 159.929 66.3025 159.929C66.079 159.929 66.079 157.668 66.3025 157.103C66.526 156.537 66.079 156.82 66.079 155.407C66.079 153.993 65.4086 151.449 65.4086 151.449L62.2798 137.033C62.2798 137.033 66.3025 134.206 66.9729 134.489C67.6434 134.772 69.6547 135.62 70.1017 135.337C70.5486 135.054 72.3364 134.489 72.3364 134.489Z" fill="#179E66"/>
<path d="M77.4765 135.055L78.1469 134.772C78.1469 134.772 79.4878 134.489 81.0521 136.185C82.6165 137.881 88.427 142.969 88.427 142.969C88.427 142.969 90.6618 145.231 89.9914 147.775C89.3209 150.319 88.2035 156.538 84.8513 156.255C84.8513 156.255 82.84 159.647 81.7226 159.082C80.6052 158.516 79.7113 156.255 80.3817 155.972C81.0521 155.69 82.84 152.863 82.84 152.863L80.6052 147.492H79.9348L77.4765 145.796L77.4765 135.055Z" fill="#179E66"/>
<path d="M64.0677 136.75L62.2798 137.033C62.2798 137.033 60.7155 137.881 60.9389 141.556C61.1624 145.231 59.5981 161.908 60.2685 163.887C60.2685 163.887 58.0337 173.498 58.4807 173.78C58.9276 174.063 61.6094 175.759 61.3859 174.628C61.1624 173.498 63.8442 165.583 63.8442 165.583C63.8442 165.583 66.9729 161.343 65.632 155.407V150.601L64.0677 136.75Z" fill="#179E66"/>
<path d="M78.3661 131.777L75.5251 132.559L75.16 130.79L75.3004 132.621L70.7172 133.884L70.5156 132.907L70.5931 133.918L67.6576 134.727L67.0297 127.103C66.3841 123.974 68.7403 120.639 71.2138 119.823L72.3112 119.461C74.128 118.861 77.4303 119.406 77.9045 121.704C77.0746 125.71 75.6598 130.103 78.3661 131.777Z" fill="#2F2E41"/>
</svg>
