<svg width="182" height="104" viewBox="0 0 182 104" fill="none" xmlns="http://www.w3.org/2000/svg">
<g clip-path="url(#clip0_43_870)">
<path d="M0.65 46.36V44.92H23.85V46.36H19.53L28.25 72.92L37.53 46.36H32.17V44.92H43.45V46.36H39.45L24.49 89.48C22.73 94.4933 20.7567 97.9867 18.57 99.96C16.3833 101.987 13.7167 103 10.57 103C7.42333 103 4.94333 102.28 3.13 100.84C1.31667 99.4 0.41 97.56 0.41 95.32C0.41 93.08 0.996667 91.3733 2.17 90.2C3.34333 89.0267 4.89 88.44 6.81 88.44C11.2367 88.44 13.45 90.28 13.45 93.96C13.45 94.76 13.29 95.72 12.97 96.84H10.17C9.74333 98.0667 9.69 99.08 10.01 99.88C10.33 100.68 11.05 101.08 12.17 101.08C14.3567 101.08 16.3033 99.9867 18.01 97.8C19.7167 95.6667 21.3433 92.3867 22.89 87.96L24.65 83H17.61L3.93 46.36H0.65ZM86.4281 83H68.1881L67.3081 77.16C66.4548 79.2933 65.1748 80.9467 63.4681 82.12C61.8148 83.24 59.3348 83.8 56.0281 83.8C47.7615 83.8 43.6281 79.3467 43.6281 70.44V46.36H39.1481V44.92H58.5081V72.36C58.5081 75.56 58.7215 77.6667 59.1481 78.68C59.6281 79.6933 60.5348 80.2 61.8681 80.2C63.2548 80.2 64.4815 79.3733 65.5481 77.72C66.6148 76.0667 67.1481 73.7733 67.1481 70.84V46.36H63.4681V44.92H82.0281V81.56H86.4281V83ZM110.226 83V81.56H113.906L104.866 63L103.346 63.4V81.56H107.026V83H84.0656V81.56H88.4656V24.44H83.7456V23H103.346V61.8L104.626 61.32L122.626 46.36H115.106V44.92H130.866V46.36H125.266L115.746 54.44L129.586 81.56H132.466V83H110.226ZM133.675 71.56V46.36H129.275V44.92H133.675V34.6L148.555 30.92V44.92H158.955V46.36H148.555V73.32C148.555 75.8267 148.795 77.6667 149.275 78.84C149.808 80.0133 150.875 80.6 152.475 80.6C154.075 80.6 155.462 79.8 156.635 78.2C157.862 76.6 158.662 74.4133 159.035 71.64L160.395 71.8C159.968 75.48 158.795 78.4133 156.875 80.6C154.955 82.7333 151.782 83.8 147.355 83.8C142.928 83.8 139.542 82.92 137.195 81.16C134.848 79.4 133.675 76.2 133.675 71.56ZM168.919 39.4C166.093 39.4 164.066 38.68 162.839 37.24C161.666 35.8 161.079 34.0133 161.079 31.88C161.079 29.7467 161.719 27.9867 162.999 26.6C164.333 25.2133 166.333 24.52 168.999 24.52C171.666 24.52 173.693 25.16 175.079 26.44C176.466 27.6667 177.159 29.4533 177.159 31.8C177.159 34.0933 176.493 35.9333 175.159 37.32C173.826 38.7067 171.746 39.4 168.919 39.4ZM156.839 44.92H176.439V81.56H180.919V83H157.159V81.56H161.559V46.36H156.839V44.92Z" fill="white"/>
</g>
<defs>
<clipPath id="clip0_43_870">
<rect width="182" height="104" fill="white"/>
</clipPath>
</defs>
</svg>
