<svg width="182" height="172" viewBox="0 0 182 172" fill="none" xmlns="http://www.w3.org/2000/svg">
<path fill-rule="evenodd" clip-rule="evenodd" d="M90.9981 58.7875C93.1699 61.3939 95.3414 64 99.6848 64C109.683 64 112.571 50.7021 112.575 40.6899C112.575 36.3469 115.181 34.1754 117.787 32.0038C120.394 29.8322 123 27.6606 123 23.3176C123 13.3164 109.683 10.4248 99.6883 10.4248C95.3453 10.4248 93.1734 7.81859 91.0019 5.21238C88.8302 2.60619 86.6586 0 82.3153 0C72.3135 0 69.4217 13.3164 69.4217 23.3102C69.4217 27.6533 66.8163 29.8248 64.2108 31.9963C61.6054 34.168 59 36.3395 59 40.6826C59 50.6835 72.3135 53.5754 82.3116 53.5754C86.6549 53.5754 88.8265 56.1814 90.9981 58.7875ZM91 43.84C97.5392 43.84 102.84 38.5392 102.84 32C102.84 25.461 97.5392 20.16 91 20.16C84.461 20.16 79.16 25.461 79.16 32C79.16 38.5392 84.461 43.84 91 43.84Z" fill="url(#paint0_linear_23_7)"/>
<path d="M0.65 115.36V113.92H23.85V115.36H19.53L28.25 141.92L37.53 115.36H32.17V113.92H43.45V115.36H39.45L24.49 158.48C22.73 163.493 20.7567 166.987 18.57 168.96C16.3833 170.987 13.7167 172 10.57 172C7.42333 172 4.94333 171.28 3.13 169.84C1.31667 168.4 0.41 166.56 0.41 164.32C0.41 162.08 0.996667 160.373 2.17 159.2C3.34333 158.027 4.89 157.44 6.81 157.44C11.2367 157.44 13.45 159.28 13.45 162.96C13.45 163.76 13.29 164.72 12.97 165.84H10.17C9.74333 167.067 9.69 168.08 10.01 168.88C10.33 169.68 11.05 170.08 12.17 170.08C14.3567 170.08 16.3033 168.987 18.01 166.8C19.7167 164.667 21.3433 161.387 22.89 156.96L24.65 152H17.61L3.93 115.36H0.65ZM86.4281 152H68.1881L67.3081 146.16C66.4548 148.293 65.1748 149.947 63.4681 151.12C61.8148 152.24 59.3348 152.8 56.0281 152.8C47.7615 152.8 43.6281 148.347 43.6281 139.44V115.36H39.1481V113.92H58.5081V141.36C58.5081 144.56 58.7215 146.667 59.1481 147.68C59.6281 148.693 60.5348 149.2 61.8681 149.2C63.2548 149.2 64.4815 148.373 65.5481 146.72C66.6148 145.067 67.1481 142.773 67.1481 139.84V115.36H63.4681V113.92H82.0281V150.56H86.4281V152ZM110.226 152V150.56H113.906L104.866 132L103.346 132.4V150.56H107.026V152H84.0656V150.56H88.4656V93.44H83.7456V92H103.346V130.8L104.626 130.32L122.626 115.36H115.106V113.92H130.866V115.36H125.266L115.746 123.44L129.586 150.56H132.466V152H110.226ZM133.675 140.56V115.36H129.275V113.92H133.675V103.6L148.555 99.92V113.92H158.955V115.36H148.555V142.32C148.555 144.827 148.795 146.667 149.275 147.84C149.808 149.013 150.875 149.6 152.475 149.6C154.075 149.6 155.462 148.8 156.635 147.2C157.862 145.6 158.662 143.413 159.035 140.64L160.395 140.8C159.968 144.48 158.795 147.413 156.875 149.6C154.955 151.733 151.782 152.8 147.355 152.8C142.928 152.8 139.542 151.92 137.195 150.16C134.848 148.4 133.675 145.2 133.675 140.56ZM168.919 108.4C166.093 108.4 164.066 107.68 162.839 106.24C161.666 104.8 161.079 103.013 161.079 100.88C161.079 98.7467 161.719 96.9867 162.999 95.6C164.333 94.2133 166.333 93.52 168.999 93.52C171.666 93.52 173.693 94.16 175.079 95.44C176.466 96.6667 177.159 98.4533 177.159 100.8C177.159 103.093 176.493 104.933 175.159 106.32C173.826 107.707 171.746 108.4 168.919 108.4ZM156.839 113.92H176.439V150.56H180.919V152H157.159V150.56H161.559V115.36H156.839V113.92Z" fill="white"/>
<defs>
<linearGradient id="paint0_linear_23_7" x1="125.08" y1="19.2" x2="44.76" y2="48.8" gradientUnits="userSpaceOnUse">
<stop stop-color="#8EF55A"/>
<stop offset="1" stop-color="#214A50"/>
</linearGradient>
</defs>
</svg>
